G04 #@! TF.GenerationSoftware,KiCad,Pcbnew,(5.1.12-1-10_14)*
G04 #@! TF.CreationDate,2021-12-21T11:16:05-05:00*
G04 #@! TF.ProjectId,FlowerPeripheral,466c6f77-6572-4506-9572-697068657261,rev?*
G04 #@! TF.SameCoordinates,Original*
G04 #@! TF.FileFunction,Legend,Top*
G04 #@! TF.FilePolarity,Positive*
%FSLAX46Y46*%
G04 Gerber Fmt 4.6, Leading zero omitted, Abs format (unit mm)*
G04 Created by KiCad (PCBNEW (5.1.12-1-10_14)) date 2021-12-21 11:16:05*
%MOMM*%
%LPD*%
G01*
G04 APERTURE LIST*
%ADD10C,0.150000*%
%ADD11C,0.120000*%
%ADD12C,0.125000*%
%ADD13C,0.100000*%
%ADD14C,0.200000*%
%ADD15C,0.127000*%
G04 APERTURE END LIST*
D10*
X159774000Y-98456666D02*
X159726380Y-98551904D01*
X159726380Y-98694761D01*
X159774000Y-98837619D01*
X159869238Y-98932857D01*
X159964476Y-98980476D01*
X160154952Y-99028095D01*
X160297809Y-99028095D01*
X160488285Y-98980476D01*
X160583523Y-98932857D01*
X160678761Y-98837619D01*
X160726380Y-98694761D01*
X160726380Y-98599523D01*
X160678761Y-98456666D01*
X160631142Y-98409047D01*
X160297809Y-98409047D01*
X160297809Y-98599523D01*
X160678761Y-97599523D02*
X160726380Y-97694761D01*
X160726380Y-97885238D01*
X160678761Y-97980476D01*
X160583523Y-98028095D01*
X160202571Y-98028095D01*
X160107333Y-97980476D01*
X160059714Y-97885238D01*
X160059714Y-97694761D01*
X160107333Y-97599523D01*
X160202571Y-97551904D01*
X160297809Y-97551904D01*
X160393047Y-98028095D01*
X160726380Y-97123333D02*
X160059714Y-97123333D01*
X159726380Y-97123333D02*
X159774000Y-97170952D01*
X159821619Y-97123333D01*
X159774000Y-97075714D01*
X159726380Y-97123333D01*
X159821619Y-97123333D01*
X160726380Y-96504285D02*
X160678761Y-96599523D01*
X160583523Y-96647142D01*
X159726380Y-96647142D01*
X162504380Y-103274190D02*
X161504380Y-103274190D01*
X162218666Y-102940857D01*
X161504380Y-102607523D01*
X162504380Y-102607523D01*
X162504380Y-101988476D02*
X162456761Y-102083714D01*
X162409142Y-102131333D01*
X162313904Y-102178952D01*
X162028190Y-102178952D01*
X161932952Y-102131333D01*
X161885333Y-102083714D01*
X161837714Y-101988476D01*
X161837714Y-101845619D01*
X161885333Y-101750380D01*
X161932952Y-101702761D01*
X162028190Y-101655142D01*
X162313904Y-101655142D01*
X162409142Y-101702761D01*
X162456761Y-101750380D01*
X162504380Y-101845619D01*
X162504380Y-101988476D01*
X162504380Y-101226571D02*
X161837714Y-101226571D01*
X162028190Y-101226571D02*
X161932952Y-101178952D01*
X161885333Y-101131333D01*
X161837714Y-101036095D01*
X161837714Y-100940857D01*
X161837714Y-100607523D02*
X162504380Y-100607523D01*
X161932952Y-100607523D02*
X161885333Y-100559904D01*
X161837714Y-100464666D01*
X161837714Y-100321809D01*
X161885333Y-100226571D01*
X161980571Y-100178952D01*
X162504380Y-100178952D01*
X162504380Y-99702761D02*
X161837714Y-99702761D01*
X161504380Y-99702761D02*
X161552000Y-99750380D01*
X161599619Y-99702761D01*
X161552000Y-99655142D01*
X161504380Y-99702761D01*
X161599619Y-99702761D01*
X161837714Y-99226571D02*
X162504380Y-99226571D01*
X161932952Y-99226571D02*
X161885333Y-99178952D01*
X161837714Y-99083714D01*
X161837714Y-98940857D01*
X161885333Y-98845619D01*
X161980571Y-98798000D01*
X162504380Y-98798000D01*
X161837714Y-97893238D02*
X162647238Y-97893238D01*
X162742476Y-97940857D01*
X162790095Y-97988476D01*
X162837714Y-98083714D01*
X162837714Y-98226571D01*
X162790095Y-98321809D01*
X162456761Y-97893238D02*
X162504380Y-97988476D01*
X162504380Y-98178952D01*
X162456761Y-98274190D01*
X162409142Y-98321809D01*
X162313904Y-98369428D01*
X162028190Y-98369428D01*
X161932952Y-98321809D01*
X161885333Y-98274190D01*
X161837714Y-98178952D01*
X161837714Y-97988476D01*
X161885333Y-97893238D01*
X161552000Y-96131333D02*
X161504380Y-96226571D01*
X161504380Y-96369428D01*
X161552000Y-96512285D01*
X161647238Y-96607523D01*
X161742476Y-96655142D01*
X161932952Y-96702761D01*
X162075809Y-96702761D01*
X162266285Y-96655142D01*
X162361523Y-96607523D01*
X162456761Y-96512285D01*
X162504380Y-96369428D01*
X162504380Y-96274190D01*
X162456761Y-96131333D01*
X162409142Y-96083714D01*
X162075809Y-96083714D01*
X162075809Y-96274190D01*
X162504380Y-95512285D02*
X162456761Y-95607523D01*
X162361523Y-95655142D01*
X161504380Y-95655142D01*
X162504380Y-94988476D02*
X162456761Y-95083714D01*
X162409142Y-95131333D01*
X162313904Y-95178952D01*
X162028190Y-95178952D01*
X161932952Y-95131333D01*
X161885333Y-95083714D01*
X161837714Y-94988476D01*
X161837714Y-94845619D01*
X161885333Y-94750380D01*
X161932952Y-94702761D01*
X162028190Y-94655142D01*
X162313904Y-94655142D01*
X162409142Y-94702761D01*
X162456761Y-94750380D01*
X162504380Y-94845619D01*
X162504380Y-94988476D01*
X162504380Y-94226571D02*
X161837714Y-94226571D01*
X162028190Y-94226571D02*
X161932952Y-94178952D01*
X161885333Y-94131333D01*
X161837714Y-94036095D01*
X161837714Y-93940857D01*
X161837714Y-93702761D02*
X162504380Y-93464666D01*
X161837714Y-93226571D02*
X162504380Y-93464666D01*
X162742476Y-93559904D01*
X162790095Y-93607523D01*
X162837714Y-93702761D01*
D11*
X156220305Y-104584500D02*
G75*
G03*
X156220305Y-104584500I-200805J0D01*
G01*
X142953908Y-108013500D02*
G75*
G03*
X142953908Y-108013500I-269408J0D01*
G01*
X132538748Y-106035000D02*
X133061252Y-106035000D01*
X132538748Y-104565000D02*
X133061252Y-104565000D01*
X150892100Y-102482500D02*
X150892100Y-100482500D01*
X154492100Y-100482500D02*
X154492100Y-102482500D01*
X153442100Y-100082500D02*
X153442100Y-99682500D01*
X154692100Y-102482500D02*
X154692100Y-100482500D01*
X150892100Y-100482500D02*
X150892100Y-100082500D01*
X154492100Y-100482500D02*
X154492100Y-100082500D01*
X154692100Y-100482500D02*
X154692100Y-100082500D01*
X154492100Y-102482500D02*
X154342100Y-102482500D01*
X154492100Y-100082500D02*
X154342100Y-100082500D01*
X153442100Y-100082500D02*
X153492100Y-100082500D01*
X150892100Y-100082500D02*
X151042100Y-100082500D01*
X150892100Y-102482500D02*
X151042100Y-102482500D01*
X156833900Y-101124652D02*
X156833900Y-100602148D01*
X158303900Y-101124652D02*
X158303900Y-100602148D01*
X156271900Y-101124652D02*
X156271900Y-100602148D01*
X154801900Y-101124652D02*
X154801900Y-100602148D01*
D12*
X158903840Y-100856340D02*
X158975410Y-100934685D01*
X158975410Y-100934685D02*
X159046019Y-101005833D01*
X158839009Y-100779657D02*
X158903840Y-100856340D01*
X158789440Y-100714068D02*
X158839009Y-100779657D01*
X159478261Y-99762157D02*
X159406997Y-99829484D01*
X161066126Y-99779723D02*
X160976584Y-99699030D01*
X160689739Y-100072995D02*
X160725969Y-99985203D01*
X160725969Y-99985203D02*
X160755135Y-99894743D01*
X160774344Y-99809370D02*
X160777595Y-99790915D01*
X160777595Y-99790915D02*
X160780552Y-99775074D01*
X160780552Y-99775074D02*
X160783234Y-99761305D01*
X160787540Y-99759063D02*
X160805799Y-99770833D01*
X160805799Y-99770833D02*
X160825835Y-99784999D01*
X160825835Y-99784999D02*
X160845611Y-99800712D01*
X159508300Y-100968662D02*
X159407241Y-100948240D01*
X159407241Y-100948240D02*
X159299120Y-100919459D01*
X159299120Y-100919459D02*
X159189844Y-100884099D01*
X159189844Y-100884099D02*
X159085260Y-100843875D01*
X159085260Y-100843875D02*
X159019455Y-100814612D01*
X159019455Y-100814612D02*
X158940982Y-100776254D01*
X158940982Y-100776254D02*
X158866194Y-100737261D01*
X158866194Y-100737261D02*
X158813831Y-100706777D01*
X158813831Y-100706777D02*
X158796682Y-100696163D01*
X158796682Y-100696163D02*
X158782023Y-100687447D01*
X158782023Y-100687447D02*
X158769183Y-100680046D01*
X158767863Y-100681355D02*
X158773732Y-100690715D01*
X158773732Y-100690715D02*
X158780793Y-100701509D01*
X158780793Y-100701509D02*
X158789440Y-100714068D01*
D13*
G36*
X158889700Y-100749100D02*
G01*
X159054800Y-100830380D01*
X159260540Y-100906580D01*
X159509460Y-100970080D01*
X159748220Y-100990400D01*
X159913320Y-100970080D01*
X160131760Y-100919280D01*
X160362900Y-100817680D01*
X160535620Y-100723700D01*
X160672780Y-100632260D01*
X160830260Y-100462080D01*
X160916620Y-100307140D01*
X160959800Y-100157280D01*
X160957260Y-99984560D01*
X160903920Y-99855020D01*
X160812480Y-99773740D01*
X160784540Y-99781360D01*
X160748980Y-99908360D01*
X160708340Y-100030280D01*
X160604200Y-100215700D01*
X160474660Y-100360480D01*
X160355280Y-100457000D01*
X160243520Y-100538280D01*
X160047940Y-100596700D01*
X159814260Y-100617020D01*
X159639000Y-100589080D01*
X159478980Y-100530660D01*
X159364680Y-100454460D01*
X159296100Y-100383340D01*
X159245300Y-100299520D01*
X159232600Y-100197920D01*
X159235140Y-100119180D01*
X159255460Y-100035360D01*
X159303720Y-99949000D01*
X159415480Y-99816920D01*
X159545020Y-99702620D01*
X159735520Y-99588320D01*
X159997140Y-99494340D01*
X160256220Y-99463860D01*
X160538160Y-99481640D01*
X160766760Y-99550220D01*
X161015680Y-99705160D01*
X161213800Y-99918520D01*
X161353500Y-100180140D01*
X161422080Y-100449380D01*
X161411920Y-100708460D01*
X161335720Y-100954840D01*
X161216340Y-101185980D01*
X161061400Y-101343460D01*
X160883600Y-101465380D01*
X160586420Y-101564440D01*
X160370520Y-101600000D01*
X160121600Y-101582220D01*
X159793940Y-101495860D01*
X159492928Y-101347493D01*
X159263610Y-101193184D01*
X158975410Y-100934685D01*
X158796682Y-100696163D01*
X158889700Y-100749100D01*
G37*
X158889700Y-100749100D02*
X159054800Y-100830380D01*
X159260540Y-100906580D01*
X159509460Y-100970080D01*
X159748220Y-100990400D01*
X159913320Y-100970080D01*
X160131760Y-100919280D01*
X160362900Y-100817680D01*
X160535620Y-100723700D01*
X160672780Y-100632260D01*
X160830260Y-100462080D01*
X160916620Y-100307140D01*
X160959800Y-100157280D01*
X160957260Y-99984560D01*
X160903920Y-99855020D01*
X160812480Y-99773740D01*
X160784540Y-99781360D01*
X160748980Y-99908360D01*
X160708340Y-100030280D01*
X160604200Y-100215700D01*
X160474660Y-100360480D01*
X160355280Y-100457000D01*
X160243520Y-100538280D01*
X160047940Y-100596700D01*
X159814260Y-100617020D01*
X159639000Y-100589080D01*
X159478980Y-100530660D01*
X159364680Y-100454460D01*
X159296100Y-100383340D01*
X159245300Y-100299520D01*
X159232600Y-100197920D01*
X159235140Y-100119180D01*
X159255460Y-100035360D01*
X159303720Y-99949000D01*
X159415480Y-99816920D01*
X159545020Y-99702620D01*
X159735520Y-99588320D01*
X159997140Y-99494340D01*
X160256220Y-99463860D01*
X160538160Y-99481640D01*
X160766760Y-99550220D01*
X161015680Y-99705160D01*
X161213800Y-99918520D01*
X161353500Y-100180140D01*
X161422080Y-100449380D01*
X161411920Y-100708460D01*
X161335720Y-100954840D01*
X161216340Y-101185980D01*
X161061400Y-101343460D01*
X160883600Y-101465380D01*
X160586420Y-101564440D01*
X160370520Y-101600000D01*
X160121600Y-101582220D01*
X159793940Y-101495860D01*
X159492928Y-101347493D01*
X159263610Y-101193184D01*
X158975410Y-100934685D01*
X158796682Y-100696163D01*
X158889700Y-100749100D01*
D12*
X159492928Y-101347493D02*
G75*
G02*
X159263610Y-101193184I1115378J1905100D01*
G01*
X159263610Y-101193184D02*
G75*
G02*
X159046019Y-101005833I1565121J2037783D01*
G01*
X158767862Y-100681356D02*
G75*
G02*
X158767996Y-100680204I793J492D01*
G01*
X158767997Y-100680204D02*
G75*
G02*
X158769183Y-100680046I696J-697D01*
G01*
X159728644Y-100987795D02*
G75*
G02*
X159508300Y-100968662I11118J1406404D01*
G01*
X159939914Y-100970556D02*
G75*
G02*
X159728644Y-100987795I-201878J1170857D01*
G01*
X160152052Y-100914940D02*
G75*
G02*
X159939914Y-100970556I-429915J1207452D01*
G01*
X160375149Y-100819202D02*
G75*
G02*
X160152052Y-100914940I-866616J1711637D01*
G01*
X160546032Y-100718712D02*
G75*
G02*
X160375149Y-100819201I-883069J1306134D01*
G01*
X160690552Y-100603702D02*
G75*
G02*
X160546032Y-100718712I-811080J870891D01*
G01*
X160807367Y-100475222D02*
G75*
G02*
X160690552Y-100603702I-830006J637304D01*
G01*
X160895574Y-100334518D02*
G75*
G02*
X160807368Y-100475222I-783526J393184D01*
G01*
X160954634Y-100175422D02*
G75*
G02*
X160895573Y-100334518I-752159J188711D01*
G01*
X160965769Y-100029665D02*
G75*
G02*
X160954634Y-100175423I-431220J-40361D01*
G01*
X160928306Y-99903387D02*
G75*
G02*
X160965769Y-100029665I-300825J-157940D01*
G01*
X160845611Y-99800712D02*
G75*
G02*
X160928307Y-99903386I-219163J-261158D01*
G01*
X160783923Y-99759746D02*
G75*
G02*
X160787540Y-99759063I2179J-1617D01*
G01*
X160783234Y-99761305D02*
G75*
G02*
X160783923Y-99759746I3793J-746D01*
G01*
X160774344Y-99809369D02*
G75*
G02*
X160755135Y-99894743I-848264J146008D01*
G01*
X160689739Y-100072994D02*
G75*
G02*
X160649253Y-100150330I-775659J356801D01*
G01*
X160649253Y-100150330D02*
G75*
G02*
X160518227Y-100325330I-863172J509724D01*
G01*
X160518227Y-100325331D02*
G75*
G02*
X160352697Y-100467243I-724485J677562D01*
G01*
X160352697Y-100467243D02*
G75*
G02*
X160165302Y-100566023I-527006J772635D01*
G01*
X160165302Y-100566023D02*
G75*
G02*
X159969748Y-100613814I-277853J712949D01*
G01*
X159969748Y-100613813D02*
G75*
G02*
X159793142Y-100615019I-94254J871246D01*
G01*
X159793142Y-100615020D02*
G75*
G02*
X159617571Y-100581005I86539J916808D01*
G01*
X159617571Y-100581005D02*
G75*
G02*
X159460316Y-100516275I237993J801566D01*
G01*
X159460316Y-100516275D02*
G75*
G02*
X159338242Y-100426314I251945J469685D01*
G01*
X160478027Y-99477507D02*
G75*
G02*
X160700935Y-99531360I-92380J-870639D01*
G01*
X160700935Y-99531360D02*
G75*
G02*
X160791667Y-99573254I-280537J-726762D01*
G01*
X160791666Y-99573255D02*
G75*
G02*
X160884325Y-99629682I-514784J-949608D01*
G01*
X159338242Y-100426314D02*
G75*
G02*
X159250455Y-100294174I271386J275526D01*
G01*
X159250455Y-100294174D02*
G75*
G02*
X159230771Y-100146558I282553J112798D01*
G01*
X161375832Y-100303363D02*
G75*
G02*
X161409161Y-100600125I-1010580J-263749D01*
G01*
X161409161Y-100600124D02*
G75*
G02*
X161358102Y-100898454I-1100392J34796D01*
G01*
X161358102Y-100898455D02*
G75*
G02*
X161262010Y-101108789I-911957J289514D01*
G01*
X161262010Y-101108788D02*
G75*
G02*
X161119299Y-101286835I-774130J474276D01*
G01*
X161119299Y-101286834D02*
G75*
G02*
X160932555Y-101427872I-667253J689341D01*
G01*
X160932554Y-101427872D02*
G75*
G02*
X160706647Y-101529032I-599591J1036169D01*
G01*
X160706647Y-101529032D02*
G75*
G02*
X160526143Y-101574568I-413437J1258325D01*
G01*
X160526143Y-101574569D02*
G75*
G02*
X160344735Y-101593133I-214567J1201058D01*
G01*
X160344735Y-101593133D02*
G75*
G02*
X160161036Y-101584508I-33756J1241611D01*
G01*
X160884325Y-99629682D02*
G75*
G02*
X160976584Y-99699030I-685938J-1008599D01*
G01*
X161066126Y-99779722D02*
G75*
G02*
X161259098Y-100024782I-850086J-867907D01*
G01*
X161259098Y-100024782D02*
G75*
G02*
X161375831Y-100303363I-919373J-548992D01*
G01*
X159230771Y-100146558D02*
G75*
G02*
X159283884Y-99989198I394213J-45414D01*
G01*
X159283884Y-99989198D02*
G75*
G02*
X159406997Y-99829484I721855J-429122D01*
G01*
X159478261Y-99762157D02*
G75*
G02*
X159549786Y-99704871I672399J-766247D01*
G01*
X159549786Y-99704871D02*
G75*
G02*
X159623642Y-99656102I558304J-765186D01*
G01*
X159623642Y-99656102D02*
G75*
G02*
X159701879Y-99614329I488534J-820821D01*
G01*
X159701878Y-99614329D02*
G75*
G02*
X159954858Y-99521064I638776J-1342942D01*
G01*
X159954859Y-99521064D02*
G75*
G02*
X160221459Y-99474575I391498J-1457447D01*
G01*
X160221459Y-99474575D02*
G75*
G02*
X160478028Y-99477507I112782J-1358049D01*
G01*
X160161036Y-101584507D02*
G75*
G02*
X159973697Y-101548959I173181J1424063D01*
G01*
X159973697Y-101548959D02*
G75*
G02*
X159730735Y-101466644I444215J1710858D01*
G01*
X159730735Y-101466644D02*
G75*
G02*
X159492928Y-101347493I793717J1881030D01*
G01*
D11*
X141078000Y-111798748D02*
X141078000Y-112321252D01*
X139608000Y-111798748D02*
X139608000Y-112321252D01*
X136082000Y-102616000D02*
G75*
G03*
X136082000Y-102616000I-700000J0D01*
G01*
X156923000Y-107526000D02*
X156923000Y-107901000D01*
X156923000Y-107901000D02*
X156548000Y-107901000D01*
X152703000Y-104056000D02*
X152703000Y-103681000D01*
X152703000Y-103681000D02*
X153078000Y-103681000D01*
X152703000Y-107526000D02*
X152703000Y-107901000D01*
X152703000Y-107901000D02*
X153078000Y-107901000D01*
X156923000Y-104056000D02*
X156923000Y-103681000D01*
X134050000Y-102616000D02*
G75*
G03*
X134050000Y-102616000I-700000J0D01*
G01*
X145907000Y-96201000D02*
X145907000Y-97601000D01*
X145207000Y-98301000D02*
X144607000Y-98301000D01*
X143907000Y-97601000D02*
X143907000Y-96201000D01*
X144607000Y-95501000D02*
X145207000Y-95501000D01*
X145907000Y-97601000D02*
G75*
G02*
X145207000Y-98301000I-700000J0D01*
G01*
X144607000Y-98301000D02*
G75*
G02*
X143907000Y-97601000I0J700000D01*
G01*
X143907000Y-96201000D02*
G75*
G02*
X144607000Y-95501000I700000J0D01*
G01*
X145207000Y-95501000D02*
G75*
G02*
X145907000Y-96201000I0J-700000D01*
G01*
X136278252Y-109735000D02*
X135755748Y-109735000D01*
X136278252Y-108265000D02*
X135755748Y-108265000D01*
X145915748Y-103478000D02*
X146438252Y-103478000D01*
X145915748Y-102008000D02*
X146438252Y-102008000D01*
X132034000Y-108549252D02*
X132034000Y-108026748D01*
X133504000Y-108549252D02*
X133504000Y-108026748D01*
X137576000Y-111798748D02*
X137576000Y-112321252D01*
X139046000Y-111798748D02*
X139046000Y-112321252D01*
X139854000Y-97416252D02*
X139854000Y-96893748D01*
X141324000Y-97416252D02*
X141324000Y-96893748D01*
X137014000Y-112321252D02*
X137014000Y-111798748D01*
X135544000Y-112321252D02*
X135544000Y-111798748D01*
X131472000Y-108515064D02*
X131472000Y-108060936D01*
X130002000Y-108515064D02*
X130002000Y-108060936D01*
X143365000Y-111972936D02*
X143365000Y-112427064D01*
X144835000Y-111972936D02*
X144835000Y-112427064D01*
X141886000Y-97382064D02*
X141886000Y-96927936D01*
X143356000Y-97382064D02*
X143356000Y-96927936D01*
X139553000Y-114507000D02*
X139553000Y-120477000D01*
X139553000Y-120477000D02*
X152173000Y-120477000D01*
X152173000Y-120477000D02*
X152173000Y-114507000D01*
X152173000Y-114507000D02*
X139553000Y-114507000D01*
X142863000Y-114517000D02*
X142863000Y-115267000D01*
X142863000Y-115267000D02*
X148863000Y-115267000D01*
X148863000Y-115267000D02*
X148863000Y-114517000D01*
X148863000Y-114517000D02*
X142863000Y-114517000D01*
X139563000Y-114517000D02*
X139563000Y-115267000D01*
X139563000Y-115267000D02*
X141363000Y-115267000D01*
X141363000Y-115267000D02*
X141363000Y-114517000D01*
X141363000Y-114517000D02*
X139563000Y-114517000D01*
X150363000Y-114517000D02*
X150363000Y-115267000D01*
X150363000Y-115267000D02*
X152163000Y-115267000D01*
X152163000Y-115267000D02*
X152163000Y-114517000D01*
X152163000Y-114517000D02*
X150363000Y-114517000D01*
X139563000Y-116767000D02*
X140313000Y-116767000D01*
X140313000Y-116767000D02*
X140313000Y-119717000D01*
X140313000Y-119717000D02*
X145863000Y-119717000D01*
X152163000Y-116767000D02*
X151413000Y-116767000D01*
X151413000Y-116767000D02*
X151413000Y-119717000D01*
X151413000Y-119717000D02*
X145863000Y-119717000D01*
X140513000Y-114217000D02*
X139263000Y-114217000D01*
X139263000Y-114217000D02*
X139263000Y-115467000D01*
X132290000Y-85034000D02*
X131040000Y-85034000D01*
X132290000Y-86284000D02*
X132290000Y-85034000D01*
X126790000Y-99684000D02*
X126790000Y-92884000D01*
X129740000Y-99684000D02*
X126790000Y-99684000D01*
X129740000Y-100434000D02*
X129740000Y-99684000D01*
X126790000Y-86084000D02*
X126790000Y-92884000D01*
X129740000Y-86084000D02*
X126790000Y-86084000D01*
X129740000Y-85334000D02*
X129740000Y-86084000D01*
X131990000Y-100434000D02*
X131990000Y-98634000D01*
X131240000Y-100434000D02*
X131990000Y-100434000D01*
X131240000Y-98634000D02*
X131240000Y-100434000D01*
X131990000Y-98634000D02*
X131240000Y-98634000D01*
X131990000Y-87134000D02*
X131990000Y-85334000D01*
X131240000Y-87134000D02*
X131990000Y-87134000D01*
X131240000Y-85334000D02*
X131240000Y-87134000D01*
X131990000Y-85334000D02*
X131240000Y-85334000D01*
X131990000Y-97134000D02*
X131990000Y-88634000D01*
X131240000Y-97134000D02*
X131990000Y-97134000D01*
X131240000Y-88634000D02*
X131240000Y-97134000D01*
X131990000Y-88634000D02*
X131240000Y-88634000D01*
X132000000Y-100444000D02*
X132000000Y-85324000D01*
X126030000Y-100444000D02*
X132000000Y-100444000D01*
X126030000Y-85324000D02*
X126030000Y-100444000D01*
X132000000Y-85324000D02*
X126030000Y-85324000D01*
X139112000Y-85324000D02*
X133142000Y-85324000D01*
X133142000Y-85324000D02*
X133142000Y-100444000D01*
X133142000Y-100444000D02*
X139112000Y-100444000D01*
X139112000Y-100444000D02*
X139112000Y-85324000D01*
X139102000Y-88634000D02*
X138352000Y-88634000D01*
X138352000Y-88634000D02*
X138352000Y-97134000D01*
X138352000Y-97134000D02*
X139102000Y-97134000D01*
X139102000Y-97134000D02*
X139102000Y-88634000D01*
X139102000Y-85334000D02*
X138352000Y-85334000D01*
X138352000Y-85334000D02*
X138352000Y-87134000D01*
X138352000Y-87134000D02*
X139102000Y-87134000D01*
X139102000Y-87134000D02*
X139102000Y-85334000D01*
X139102000Y-98634000D02*
X138352000Y-98634000D01*
X138352000Y-98634000D02*
X138352000Y-100434000D01*
X138352000Y-100434000D02*
X139102000Y-100434000D01*
X139102000Y-100434000D02*
X139102000Y-98634000D01*
X136852000Y-85334000D02*
X136852000Y-86084000D01*
X136852000Y-86084000D02*
X133902000Y-86084000D01*
X133902000Y-86084000D02*
X133902000Y-92884000D01*
X136852000Y-100434000D02*
X136852000Y-99684000D01*
X136852000Y-99684000D02*
X133902000Y-99684000D01*
X133902000Y-99684000D02*
X133902000Y-92884000D01*
X139402000Y-86284000D02*
X139402000Y-85034000D01*
X139402000Y-85034000D02*
X138152000Y-85034000D01*
X159336000Y-87014000D02*
X159336000Y-93834000D01*
X139876000Y-87014000D02*
X139876000Y-93834000D01*
X159336000Y-87014000D02*
X158026000Y-87014000D01*
X156426000Y-87014000D02*
X155486000Y-87014000D01*
X153886000Y-87014000D02*
X152946000Y-87014000D01*
X151346000Y-87014000D02*
X150406000Y-87014000D01*
X148806000Y-87014000D02*
X147866000Y-87014000D01*
X146266000Y-87014000D02*
X145326000Y-87014000D01*
X143726000Y-87014000D02*
X142786000Y-87014000D01*
X141186000Y-87014000D02*
X139876000Y-87014000D01*
X141186000Y-93834000D02*
X139876000Y-93834000D01*
X143726000Y-93834000D02*
X142786000Y-93834000D01*
X146266000Y-93834000D02*
X145326000Y-93834000D01*
X148806000Y-93834000D02*
X147866000Y-93834000D01*
X151346000Y-93834000D02*
X150406000Y-93834000D01*
X153886000Y-93834000D02*
X152946000Y-93834000D01*
X159336000Y-93834000D02*
X158026000Y-93834000D01*
X156426000Y-93834000D02*
X155486000Y-93834000D01*
X159576000Y-86774000D02*
X159576000Y-88157000D01*
X159576000Y-86774000D02*
X158193000Y-86774000D01*
X157861000Y-88614000D02*
X156591000Y-88614000D01*
X156591000Y-88614000D02*
X156591000Y-92234000D01*
X156591000Y-92234000D02*
X157861000Y-92234000D01*
X157861000Y-92234000D02*
X157861000Y-88614000D01*
X157741000Y-88614000D02*
X157741000Y-89820667D01*
X157621000Y-88614000D02*
X157621000Y-89820667D01*
X157501000Y-88614000D02*
X157501000Y-89820667D01*
X157381000Y-88614000D02*
X157381000Y-89820667D01*
X157261000Y-88614000D02*
X157261000Y-89820667D01*
X157141000Y-88614000D02*
X157141000Y-89820667D01*
X157021000Y-88614000D02*
X157021000Y-89820667D01*
X156901000Y-88614000D02*
X156901000Y-89820667D01*
X156781000Y-88614000D02*
X156781000Y-89820667D01*
X156661000Y-88614000D02*
X156661000Y-89820667D01*
X157861000Y-89820667D02*
X156591000Y-89820667D01*
X155321000Y-88614000D02*
X154051000Y-88614000D01*
X154051000Y-88614000D02*
X154051000Y-92234000D01*
X154051000Y-92234000D02*
X155321000Y-92234000D01*
X155321000Y-92234000D02*
X155321000Y-88614000D01*
X155201000Y-88614000D02*
X155201000Y-89820667D01*
X155081000Y-88614000D02*
X155081000Y-89820667D01*
X154961000Y-88614000D02*
X154961000Y-89820667D01*
X154841000Y-88614000D02*
X154841000Y-89820667D01*
X154721000Y-88614000D02*
X154721000Y-89820667D01*
X154601000Y-88614000D02*
X154601000Y-89820667D01*
X154481000Y-88614000D02*
X154481000Y-89820667D01*
X154361000Y-88614000D02*
X154361000Y-89820667D01*
X154241000Y-88614000D02*
X154241000Y-89820667D01*
X154121000Y-88614000D02*
X154121000Y-89820667D01*
X155321000Y-89820667D02*
X154051000Y-89820667D01*
X152781000Y-88614000D02*
X151511000Y-88614000D01*
X151511000Y-88614000D02*
X151511000Y-92234000D01*
X151511000Y-92234000D02*
X152781000Y-92234000D01*
X152781000Y-92234000D02*
X152781000Y-88614000D01*
X152661000Y-88614000D02*
X152661000Y-89820667D01*
X152541000Y-88614000D02*
X152541000Y-89820667D01*
X152421000Y-88614000D02*
X152421000Y-89820667D01*
X152301000Y-88614000D02*
X152301000Y-89820667D01*
X152181000Y-88614000D02*
X152181000Y-89820667D01*
X152061000Y-88614000D02*
X152061000Y-89820667D01*
X151941000Y-88614000D02*
X151941000Y-89820667D01*
X151821000Y-88614000D02*
X151821000Y-89820667D01*
X151701000Y-88614000D02*
X151701000Y-89820667D01*
X151581000Y-88614000D02*
X151581000Y-89820667D01*
X152781000Y-89820667D02*
X151511000Y-89820667D01*
X150241000Y-88614000D02*
X148971000Y-88614000D01*
X148971000Y-88614000D02*
X148971000Y-92234000D01*
X148971000Y-92234000D02*
X150241000Y-92234000D01*
X150241000Y-92234000D02*
X150241000Y-88614000D01*
X150121000Y-88614000D02*
X150121000Y-89820667D01*
X150001000Y-88614000D02*
X150001000Y-89820667D01*
X149881000Y-88614000D02*
X149881000Y-89820667D01*
X149761000Y-88614000D02*
X149761000Y-89820667D01*
X149641000Y-88614000D02*
X149641000Y-89820667D01*
X149521000Y-88614000D02*
X149521000Y-89820667D01*
X149401000Y-88614000D02*
X149401000Y-89820667D01*
X149281000Y-88614000D02*
X149281000Y-89820667D01*
X149161000Y-88614000D02*
X149161000Y-89820667D01*
X149041000Y-88614000D02*
X149041000Y-89820667D01*
X150241000Y-89820667D02*
X148971000Y-89820667D01*
X147701000Y-88614000D02*
X146431000Y-88614000D01*
X146431000Y-88614000D02*
X146431000Y-92234000D01*
X146431000Y-92234000D02*
X147701000Y-92234000D01*
X147701000Y-92234000D02*
X147701000Y-88614000D01*
X147581000Y-88614000D02*
X147581000Y-89820667D01*
X147461000Y-88614000D02*
X147461000Y-89820667D01*
X147341000Y-88614000D02*
X147341000Y-89820667D01*
X147221000Y-88614000D02*
X147221000Y-89820667D01*
X147101000Y-88614000D02*
X147101000Y-89820667D01*
X146981000Y-88614000D02*
X146981000Y-89820667D01*
X146861000Y-88614000D02*
X146861000Y-89820667D01*
X146741000Y-88614000D02*
X146741000Y-89820667D01*
X146621000Y-88614000D02*
X146621000Y-89820667D01*
X146501000Y-88614000D02*
X146501000Y-89820667D01*
X147701000Y-89820667D02*
X146431000Y-89820667D01*
X145161000Y-88614000D02*
X143891000Y-88614000D01*
X143891000Y-88614000D02*
X143891000Y-92234000D01*
X143891000Y-92234000D02*
X145161000Y-92234000D01*
X145161000Y-92234000D02*
X145161000Y-88614000D01*
X145041000Y-88614000D02*
X145041000Y-89820667D01*
X144921000Y-88614000D02*
X144921000Y-89820667D01*
X144801000Y-88614000D02*
X144801000Y-89820667D01*
X144681000Y-88614000D02*
X144681000Y-89820667D01*
X144561000Y-88614000D02*
X144561000Y-89820667D01*
X144441000Y-88614000D02*
X144441000Y-89820667D01*
X144321000Y-88614000D02*
X144321000Y-89820667D01*
X144201000Y-88614000D02*
X144201000Y-89820667D01*
X144081000Y-88614000D02*
X144081000Y-89820667D01*
X143961000Y-88614000D02*
X143961000Y-89820667D01*
X145161000Y-89820667D02*
X143891000Y-89820667D01*
X142621000Y-88614000D02*
X141351000Y-88614000D01*
X141351000Y-88614000D02*
X141351000Y-92234000D01*
X141351000Y-92234000D02*
X142621000Y-92234000D01*
X142621000Y-92234000D02*
X142621000Y-88614000D01*
X142501000Y-88614000D02*
X142501000Y-89820667D01*
X142381000Y-88614000D02*
X142381000Y-89820667D01*
X142261000Y-88614000D02*
X142261000Y-89820667D01*
X142141000Y-88614000D02*
X142141000Y-89820667D01*
X142021000Y-88614000D02*
X142021000Y-89820667D01*
X141901000Y-88614000D02*
X141901000Y-89820667D01*
X141781000Y-88614000D02*
X141781000Y-89820667D01*
X141661000Y-88614000D02*
X141661000Y-89820667D01*
X141541000Y-88614000D02*
X141541000Y-89820667D01*
X141421000Y-88614000D02*
X141421000Y-89820667D01*
X142621000Y-89820667D02*
X141351000Y-89820667D01*
X157472748Y-111352000D02*
X157995252Y-111352000D01*
X157472748Y-109882000D02*
X157995252Y-109882000D01*
X157961064Y-111914000D02*
X157506936Y-111914000D01*
X157961064Y-113384000D02*
X157506936Y-113384000D01*
X155918000Y-116370000D02*
X157518000Y-116370000D01*
X155918000Y-114770000D02*
X157518000Y-114770000D01*
X159818000Y-117070000D02*
X159818000Y-116770000D01*
X153718000Y-117070000D02*
X159818000Y-117070000D01*
X153718000Y-116770000D02*
X153718000Y-117070000D01*
X153718000Y-114070000D02*
X153718000Y-114370000D01*
X159718000Y-114070000D02*
X159718000Y-114370000D01*
X153718000Y-114070000D02*
X159718000Y-114070000D01*
X152407252Y-108739000D02*
X151884748Y-108739000D01*
X152407252Y-110209000D02*
X151884748Y-110209000D01*
X152407252Y-112735000D02*
X151884748Y-112735000D01*
X152407252Y-111265000D02*
X151884748Y-111265000D01*
X143232000Y-109028000D02*
X143707000Y-109028000D01*
X138487000Y-102808000D02*
X138487000Y-103283000D01*
X138962000Y-102808000D02*
X138487000Y-102808000D01*
X143707000Y-102808000D02*
X143707000Y-103283000D01*
X143232000Y-102808000D02*
X143707000Y-102808000D01*
X138487000Y-109028000D02*
X138487000Y-108553000D01*
X138962000Y-109028000D02*
X138487000Y-109028000D01*
D14*
X157184000Y-83391000D02*
G75*
G03*
X157184000Y-83391000I-100000J0D01*
G01*
D15*
X147864000Y-83746000D02*
X152614000Y-83746000D01*
X147864000Y-81306000D02*
X147864000Y-83746000D01*
X147864000Y-77036000D02*
X152614000Y-77036000D01*
X147864000Y-79476000D02*
X147864000Y-77036000D01*
X154904000Y-82016000D02*
X154904000Y-78766000D01*
D11*
X163071500Y-109788000D02*
X165731500Y-109788000D01*
X163071500Y-86868000D02*
X163071500Y-109788000D01*
X165731500Y-86868000D02*
X165731500Y-109788000D01*
X163071500Y-86868000D02*
X165731500Y-86868000D01*
X163071500Y-85598000D02*
X163071500Y-84268000D01*
X163071500Y-84268000D02*
X164401500Y-84268000D01*
X140772000Y-76473600D02*
X140772000Y-79333600D01*
X142692000Y-76473600D02*
X140772000Y-76473600D01*
X142692000Y-79333600D02*
X142692000Y-76473600D01*
X142007000Y-78408600D02*
X141782000Y-78133600D01*
X141782000Y-78133600D02*
X141507000Y-78408600D01*
X141507000Y-78408600D02*
X142007000Y-78408600D01*
X141782000Y-78408600D02*
X141782000Y-78683600D01*
X141782000Y-78133600D02*
X141782000Y-78008600D01*
X141982000Y-78133600D02*
X141557000Y-78133600D01*
X137695000Y-82726264D02*
X137695000Y-82272136D01*
X139165000Y-82726264D02*
X139165000Y-82272136D01*
X135863000Y-82726264D02*
X135863000Y-82272136D01*
X134393000Y-82726264D02*
X134393000Y-82272136D01*
X140997000Y-82726264D02*
X140997000Y-82272136D01*
X142467000Y-82726264D02*
X142467000Y-82272136D01*
X144248200Y-82853264D02*
X144248200Y-82399136D01*
X145718200Y-82853264D02*
X145718200Y-82399136D01*
X145819800Y-78535264D02*
X145819800Y-78081136D01*
X144349800Y-78535264D02*
X144349800Y-78081136D01*
X127124000Y-102251000D02*
X129924000Y-102251000D01*
X130574000Y-102951000D02*
X130574000Y-103551000D01*
X129924000Y-104251000D02*
X127124000Y-104251000D01*
X126474000Y-103551000D02*
X126474000Y-102951000D01*
X129874000Y-102251000D02*
G75*
G02*
X130574000Y-102951000I0J-700000D01*
G01*
X130574000Y-103551000D02*
G75*
G02*
X129874000Y-104251000I-700000J0D01*
G01*
X127174000Y-104251000D02*
G75*
G02*
X126474000Y-103551000I0J700000D01*
G01*
X126474000Y-102951000D02*
G75*
G02*
X127174000Y-102251000I700000J0D01*
G01*
X127843000Y-109746000D02*
G75*
G02*
X127143000Y-109046000I0J700000D01*
G01*
X129143000Y-109046000D02*
G75*
G02*
X128443000Y-109746000I-700000J0D01*
G01*
X128443000Y-105646000D02*
G75*
G02*
X129143000Y-106346000I0J-700000D01*
G01*
X127143000Y-106346000D02*
G75*
G02*
X127843000Y-105646000I700000J0D01*
G01*
X128443000Y-109746000D02*
X127843000Y-109746000D01*
X129143000Y-106296000D02*
X129143000Y-109096000D01*
X127843000Y-105646000D02*
X128443000Y-105646000D01*
X127143000Y-109096000D02*
X127143000Y-106296000D01*
X135378000Y-78159000D02*
X134953000Y-78159000D01*
X135178000Y-78159000D02*
X135178000Y-78034000D01*
X135178000Y-78434000D02*
X135178000Y-78709000D01*
X134903000Y-78434000D02*
X135403000Y-78434000D01*
X135178000Y-78159000D02*
X134903000Y-78434000D01*
X135403000Y-78434000D02*
X135178000Y-78159000D01*
X136088000Y-79359000D02*
X136088000Y-76499000D01*
X136088000Y-76499000D02*
X134168000Y-76499000D01*
X134168000Y-76499000D02*
X134168000Y-79359000D01*
X138680000Y-78159000D02*
X138255000Y-78159000D01*
X138480000Y-78159000D02*
X138480000Y-78034000D01*
X138480000Y-78434000D02*
X138480000Y-78709000D01*
X138205000Y-78434000D02*
X138705000Y-78434000D01*
X138480000Y-78159000D02*
X138205000Y-78434000D01*
X138705000Y-78434000D02*
X138480000Y-78159000D01*
X139390000Y-79359000D02*
X139390000Y-76499000D01*
X139390000Y-76499000D02*
X137470000Y-76499000D01*
X137470000Y-76499000D02*
X137470000Y-79359000D01*
X159104000Y-82142064D02*
X159104000Y-81687936D01*
X157634000Y-82142064D02*
X157634000Y-81687936D01*
D10*
X133839833Y-104069642D02*
X133792214Y-104117261D01*
X133649357Y-104164880D01*
X133554119Y-104164880D01*
X133411261Y-104117261D01*
X133316023Y-104022023D01*
X133268404Y-103926785D01*
X133220785Y-103736309D01*
X133220785Y-103593452D01*
X133268404Y-103402976D01*
X133316023Y-103307738D01*
X133411261Y-103212500D01*
X133554119Y-103164880D01*
X133649357Y-103164880D01*
X133792214Y-103212500D01*
X133839833Y-103260119D01*
X134696976Y-103498214D02*
X134696976Y-104164880D01*
X134458880Y-103117261D02*
X134220785Y-103831547D01*
X134839833Y-103831547D01*
X150217190Y-101695190D02*
X150693380Y-101695190D01*
X149693380Y-102028523D02*
X150217190Y-101695190D01*
X149693380Y-101361857D01*
X150693380Y-100504714D02*
X150693380Y-101076142D01*
X150693380Y-100790428D02*
X149693380Y-100790428D01*
X149836238Y-100885666D01*
X149931476Y-100980904D01*
X149979095Y-101076142D01*
X157345142Y-98782142D02*
X157297523Y-98829761D01*
X157154666Y-98877380D01*
X157059428Y-98877380D01*
X156916571Y-98829761D01*
X156821333Y-98734523D01*
X156773714Y-98639285D01*
X156726095Y-98448809D01*
X156726095Y-98305952D01*
X156773714Y-98115476D01*
X156821333Y-98020238D01*
X156916571Y-97925000D01*
X157059428Y-97877380D01*
X157154666Y-97877380D01*
X157297523Y-97925000D01*
X157345142Y-97972619D01*
X158297523Y-98877380D02*
X157726095Y-98877380D01*
X158011809Y-98877380D02*
X158011809Y-97877380D01*
X157916571Y-98020238D01*
X157821333Y-98115476D01*
X157726095Y-98163095D01*
X159249904Y-98877380D02*
X158678476Y-98877380D01*
X158964190Y-98877380D02*
X158964190Y-97877380D01*
X158868952Y-98020238D01*
X158773714Y-98115476D01*
X158678476Y-98163095D01*
X154449542Y-98782142D02*
X154401923Y-98829761D01*
X154259066Y-98877380D01*
X154163828Y-98877380D01*
X154020971Y-98829761D01*
X153925733Y-98734523D01*
X153878114Y-98639285D01*
X153830495Y-98448809D01*
X153830495Y-98305952D01*
X153878114Y-98115476D01*
X153925733Y-98020238D01*
X154020971Y-97925000D01*
X154163828Y-97877380D01*
X154259066Y-97877380D01*
X154401923Y-97925000D01*
X154449542Y-97972619D01*
X155401923Y-98877380D02*
X154830495Y-98877380D01*
X155116209Y-98877380D02*
X155116209Y-97877380D01*
X155020971Y-98020238D01*
X154925733Y-98115476D01*
X154830495Y-98163095D01*
X155782876Y-97972619D02*
X155830495Y-97925000D01*
X155925733Y-97877380D01*
X156163828Y-97877380D01*
X156259066Y-97925000D01*
X156306685Y-97972619D01*
X156354304Y-98067857D01*
X156354304Y-98163095D01*
X156306685Y-98305952D01*
X155735257Y-98877380D01*
X156354304Y-98877380D01*
X142033333Y-113857142D02*
X141985714Y-113904761D01*
X141842857Y-113952380D01*
X141747619Y-113952380D01*
X141604761Y-113904761D01*
X141509523Y-113809523D01*
X141461904Y-113714285D01*
X141414285Y-113523809D01*
X141414285Y-113380952D01*
X141461904Y-113190476D01*
X141509523Y-113095238D01*
X141604761Y-113000000D01*
X141747619Y-112952380D01*
X141842857Y-112952380D01*
X141985714Y-113000000D01*
X142033333Y-113047619D01*
X142890476Y-112952380D02*
X142700000Y-112952380D01*
X142604761Y-113000000D01*
X142557142Y-113047619D01*
X142461904Y-113190476D01*
X142414285Y-113380952D01*
X142414285Y-113761904D01*
X142461904Y-113857142D01*
X142509523Y-113904761D01*
X142604761Y-113952380D01*
X142795238Y-113952380D01*
X142890476Y-113904761D01*
X142938095Y-113857142D01*
X142985714Y-113761904D01*
X142985714Y-113523809D01*
X142938095Y-113428571D01*
X142890476Y-113380952D01*
X142795238Y-113333333D01*
X142604761Y-113333333D01*
X142509523Y-113380952D01*
X142461904Y-113428571D01*
X142414285Y-113523809D01*
X135048666Y-100620380D02*
X135048666Y-101334666D01*
X135001047Y-101477523D01*
X134905809Y-101572761D01*
X134762952Y-101620380D01*
X134667714Y-101620380D01*
X135953428Y-100620380D02*
X135762952Y-100620380D01*
X135667714Y-100668000D01*
X135620095Y-100715619D01*
X135524857Y-100858476D01*
X135477238Y-101048952D01*
X135477238Y-101429904D01*
X135524857Y-101525142D01*
X135572476Y-101572761D01*
X135667714Y-101620380D01*
X135858190Y-101620380D01*
X135953428Y-101572761D01*
X136001047Y-101525142D01*
X136048666Y-101429904D01*
X136048666Y-101191809D01*
X136001047Y-101096571D01*
X135953428Y-101048952D01*
X135858190Y-101001333D01*
X135667714Y-101001333D01*
X135572476Y-101048952D01*
X135524857Y-101096571D01*
X135477238Y-101191809D01*
X157313380Y-106171904D02*
X158122904Y-106171904D01*
X158218142Y-106124285D01*
X158265761Y-106076666D01*
X158313380Y-105981428D01*
X158313380Y-105790952D01*
X158265761Y-105695714D01*
X158218142Y-105648095D01*
X158122904Y-105600476D01*
X157313380Y-105600476D01*
X158313380Y-104600476D02*
X158313380Y-105171904D01*
X158313380Y-104886190D02*
X157313380Y-104886190D01*
X157456238Y-104981428D01*
X157551476Y-105076666D01*
X157599095Y-105171904D01*
X133016666Y-100620380D02*
X133016666Y-101334666D01*
X132969047Y-101477523D01*
X132873809Y-101572761D01*
X132730952Y-101620380D01*
X132635714Y-101620380D01*
X133969047Y-100620380D02*
X133492857Y-100620380D01*
X133445238Y-101096571D01*
X133492857Y-101048952D01*
X133588095Y-101001333D01*
X133826190Y-101001333D01*
X133921428Y-101048952D01*
X133969047Y-101096571D01*
X134016666Y-101191809D01*
X134016666Y-101429904D01*
X133969047Y-101525142D01*
X133921428Y-101572761D01*
X133826190Y-101620380D01*
X133588095Y-101620380D01*
X133492857Y-101572761D01*
X133445238Y-101525142D01*
X146159380Y-97734333D02*
X146873666Y-97734333D01*
X147016523Y-97781952D01*
X147111761Y-97877190D01*
X147159380Y-98020047D01*
X147159380Y-98115285D01*
X147159380Y-97258142D02*
X146159380Y-97258142D01*
X146159380Y-96877190D01*
X146207000Y-96781952D01*
X146254619Y-96734333D01*
X146349857Y-96686714D01*
X146492714Y-96686714D01*
X146587952Y-96734333D01*
X146635571Y-96781952D01*
X146683190Y-96877190D01*
X146683190Y-97258142D01*
X147159380Y-95734333D02*
X147159380Y-96305761D01*
X147159380Y-96020047D02*
X146159380Y-96020047D01*
X146302238Y-96115285D01*
X146397476Y-96210523D01*
X146445095Y-96305761D01*
X134083333Y-111107142D02*
X134035714Y-111154761D01*
X133892857Y-111202380D01*
X133797619Y-111202380D01*
X133654761Y-111154761D01*
X133559523Y-111059523D01*
X133511904Y-110964285D01*
X133464285Y-110773809D01*
X133464285Y-110630952D01*
X133511904Y-110440476D01*
X133559523Y-110345238D01*
X133654761Y-110250000D01*
X133797619Y-110202380D01*
X133892857Y-110202380D01*
X134035714Y-110250000D01*
X134083333Y-110297619D01*
X134416666Y-110202380D02*
X135083333Y-110202380D01*
X134654761Y-111202380D01*
X146073833Y-101512642D02*
X146026214Y-101560261D01*
X145883357Y-101607880D01*
X145788119Y-101607880D01*
X145645261Y-101560261D01*
X145550023Y-101465023D01*
X145502404Y-101369785D01*
X145454785Y-101179309D01*
X145454785Y-101036452D01*
X145502404Y-100845976D01*
X145550023Y-100750738D01*
X145645261Y-100655500D01*
X145788119Y-100607880D01*
X145883357Y-100607880D01*
X146026214Y-100655500D01*
X146073833Y-100703119D01*
X147026214Y-101607880D02*
X146454785Y-101607880D01*
X146740500Y-101607880D02*
X146740500Y-100607880D01*
X146645261Y-100750738D01*
X146550023Y-100845976D01*
X146454785Y-100893595D01*
X134483333Y-107627142D02*
X134435714Y-107674761D01*
X134292857Y-107722380D01*
X134197619Y-107722380D01*
X134054761Y-107674761D01*
X133959523Y-107579523D01*
X133911904Y-107484285D01*
X133864285Y-107293809D01*
X133864285Y-107150952D01*
X133911904Y-106960476D01*
X133959523Y-106865238D01*
X134054761Y-106770000D01*
X134197619Y-106722380D01*
X134292857Y-106722380D01*
X134435714Y-106770000D01*
X134483333Y-106817619D01*
X134864285Y-106817619D02*
X134911904Y-106770000D01*
X135007142Y-106722380D01*
X135245238Y-106722380D01*
X135340476Y-106770000D01*
X135388095Y-106817619D01*
X135435714Y-106912857D01*
X135435714Y-107008095D01*
X135388095Y-107150952D01*
X134816666Y-107722380D01*
X135435714Y-107722380D01*
X138033333Y-115057142D02*
X137985714Y-115104761D01*
X137842857Y-115152380D01*
X137747619Y-115152380D01*
X137604761Y-115104761D01*
X137509523Y-115009523D01*
X137461904Y-114914285D01*
X137414285Y-114723809D01*
X137414285Y-114580952D01*
X137461904Y-114390476D01*
X137509523Y-114295238D01*
X137604761Y-114200000D01*
X137747619Y-114152380D01*
X137842857Y-114152380D01*
X137985714Y-114200000D01*
X138033333Y-114247619D01*
X138938095Y-114152380D02*
X138461904Y-114152380D01*
X138414285Y-114628571D01*
X138461904Y-114580952D01*
X138557142Y-114533333D01*
X138795238Y-114533333D01*
X138890476Y-114580952D01*
X138938095Y-114628571D01*
X138985714Y-114723809D01*
X138985714Y-114961904D01*
X138938095Y-115057142D01*
X138890476Y-115104761D01*
X138795238Y-115152380D01*
X138557142Y-115152380D01*
X138461904Y-115104761D01*
X138414285Y-115057142D01*
X140041333Y-100077542D02*
X139993714Y-100125161D01*
X139850857Y-100172780D01*
X139755619Y-100172780D01*
X139612761Y-100125161D01*
X139517523Y-100029923D01*
X139469904Y-99934685D01*
X139422285Y-99744209D01*
X139422285Y-99601352D01*
X139469904Y-99410876D01*
X139517523Y-99315638D01*
X139612761Y-99220400D01*
X139755619Y-99172780D01*
X139850857Y-99172780D01*
X139993714Y-99220400D01*
X140041333Y-99268019D01*
X140612761Y-99601352D02*
X140517523Y-99553733D01*
X140469904Y-99506114D01*
X140422285Y-99410876D01*
X140422285Y-99363257D01*
X140469904Y-99268019D01*
X140517523Y-99220400D01*
X140612761Y-99172780D01*
X140803238Y-99172780D01*
X140898476Y-99220400D01*
X140946095Y-99268019D01*
X140993714Y-99363257D01*
X140993714Y-99410876D01*
X140946095Y-99506114D01*
X140898476Y-99553733D01*
X140803238Y-99601352D01*
X140612761Y-99601352D01*
X140517523Y-99648971D01*
X140469904Y-99696590D01*
X140422285Y-99791828D01*
X140422285Y-99982304D01*
X140469904Y-100077542D01*
X140517523Y-100125161D01*
X140612761Y-100172780D01*
X140803238Y-100172780D01*
X140898476Y-100125161D01*
X140946095Y-100077542D01*
X140993714Y-99982304D01*
X140993714Y-99791828D01*
X140946095Y-99696590D01*
X140898476Y-99648971D01*
X140803238Y-99601352D01*
X136133333Y-115057142D02*
X136085714Y-115104761D01*
X135942857Y-115152380D01*
X135847619Y-115152380D01*
X135704761Y-115104761D01*
X135609523Y-115009523D01*
X135561904Y-114914285D01*
X135514285Y-114723809D01*
X135514285Y-114580952D01*
X135561904Y-114390476D01*
X135609523Y-114295238D01*
X135704761Y-114200000D01*
X135847619Y-114152380D01*
X135942857Y-114152380D01*
X136085714Y-114200000D01*
X136133333Y-114247619D01*
X136609523Y-115152380D02*
X136800000Y-115152380D01*
X136895238Y-115104761D01*
X136942857Y-115057142D01*
X137038095Y-114914285D01*
X137085714Y-114723809D01*
X137085714Y-114342857D01*
X137038095Y-114247619D01*
X136990476Y-114200000D01*
X136895238Y-114152380D01*
X136704761Y-114152380D01*
X136609523Y-114200000D01*
X136561904Y-114247619D01*
X136514285Y-114342857D01*
X136514285Y-114580952D01*
X136561904Y-114676190D01*
X136609523Y-114723809D01*
X136704761Y-114771428D01*
X136895238Y-114771428D01*
X136990476Y-114723809D01*
X137038095Y-114676190D01*
X137085714Y-114580952D01*
X129923333Y-106342380D02*
X129590000Y-105866190D01*
X129351904Y-106342380D02*
X129351904Y-105342380D01*
X129732857Y-105342380D01*
X129828095Y-105390000D01*
X129875714Y-105437619D01*
X129923333Y-105532857D01*
X129923333Y-105675714D01*
X129875714Y-105770952D01*
X129828095Y-105818571D01*
X129732857Y-105866190D01*
X129351904Y-105866190D01*
X130828095Y-105342380D02*
X130351904Y-105342380D01*
X130304285Y-105818571D01*
X130351904Y-105770952D01*
X130447142Y-105723333D01*
X130685238Y-105723333D01*
X130780476Y-105770952D01*
X130828095Y-105818571D01*
X130875714Y-105913809D01*
X130875714Y-106151904D01*
X130828095Y-106247142D01*
X130780476Y-106294761D01*
X130685238Y-106342380D01*
X130447142Y-106342380D01*
X130351904Y-106294761D01*
X130304285Y-106247142D01*
X146203380Y-111366666D02*
X145727190Y-111700000D01*
X146203380Y-111938095D02*
X145203380Y-111938095D01*
X145203380Y-111557142D01*
X145251000Y-111461904D01*
X145298619Y-111414285D01*
X145393857Y-111366666D01*
X145536714Y-111366666D01*
X145631952Y-111414285D01*
X145679571Y-111461904D01*
X145727190Y-111557142D01*
X145727190Y-111938095D01*
X145203380Y-110509523D02*
X145203380Y-110700000D01*
X145251000Y-110795238D01*
X145298619Y-110842857D01*
X145441476Y-110938095D01*
X145631952Y-110985714D01*
X146012904Y-110985714D01*
X146108142Y-110938095D01*
X146155761Y-110890476D01*
X146203380Y-110795238D01*
X146203380Y-110604761D01*
X146155761Y-110509523D01*
X146108142Y-110461904D01*
X146012904Y-110414285D01*
X145774809Y-110414285D01*
X145679571Y-110461904D01*
X145631952Y-110509523D01*
X145584333Y-110604761D01*
X145584333Y-110795238D01*
X145631952Y-110890476D01*
X145679571Y-110938095D01*
X145774809Y-110985714D01*
X142530533Y-100172780D02*
X142197200Y-99696590D01*
X141959104Y-100172780D02*
X141959104Y-99172780D01*
X142340057Y-99172780D01*
X142435295Y-99220400D01*
X142482914Y-99268019D01*
X142530533Y-99363257D01*
X142530533Y-99506114D01*
X142482914Y-99601352D01*
X142435295Y-99648971D01*
X142340057Y-99696590D01*
X141959104Y-99696590D01*
X142863866Y-99172780D02*
X143530533Y-99172780D01*
X143101961Y-100172780D01*
X146966666Y-113052380D02*
X146966666Y-113766666D01*
X146919047Y-113909523D01*
X146823809Y-114004761D01*
X146680952Y-114052380D01*
X146585714Y-114052380D01*
X147966666Y-114052380D02*
X147395238Y-114052380D01*
X147680952Y-114052380D02*
X147680952Y-113052380D01*
X147585714Y-113195238D01*
X147490476Y-113290476D01*
X147395238Y-113338095D01*
X129206666Y-84034380D02*
X129206666Y-84748666D01*
X129159047Y-84891523D01*
X129063809Y-84986761D01*
X128920952Y-85034380D01*
X128825714Y-85034380D01*
X129587619Y-84034380D02*
X130206666Y-84034380D01*
X129873333Y-84415333D01*
X130016190Y-84415333D01*
X130111428Y-84462952D01*
X130159047Y-84510571D01*
X130206666Y-84605809D01*
X130206666Y-84843904D01*
X130159047Y-84939142D01*
X130111428Y-84986761D01*
X130016190Y-85034380D01*
X129730476Y-85034380D01*
X129635238Y-84986761D01*
X129587619Y-84939142D01*
X136318666Y-84034380D02*
X136318666Y-84748666D01*
X136271047Y-84891523D01*
X136175809Y-84986761D01*
X136032952Y-85034380D01*
X135937714Y-85034380D01*
X137223428Y-84367714D02*
X137223428Y-85034380D01*
X136985333Y-83986761D02*
X136747238Y-84701047D01*
X137366285Y-84701047D01*
X160740761Y-91757333D02*
X160788380Y-91614476D01*
X160788380Y-91376380D01*
X160740761Y-91281142D01*
X160693142Y-91233523D01*
X160597904Y-91185904D01*
X160502666Y-91185904D01*
X160407428Y-91233523D01*
X160359809Y-91281142D01*
X160312190Y-91376380D01*
X160264571Y-91566857D01*
X160216952Y-91662095D01*
X160169333Y-91709714D01*
X160074095Y-91757333D01*
X159978857Y-91757333D01*
X159883619Y-91709714D01*
X159836000Y-91662095D01*
X159788380Y-91566857D01*
X159788380Y-91328761D01*
X159836000Y-91185904D01*
X159788380Y-90852571D02*
X160788380Y-90614476D01*
X160074095Y-90424000D01*
X160788380Y-90233523D01*
X159788380Y-89995428D01*
X159883619Y-89662095D02*
X159836000Y-89614476D01*
X159788380Y-89519238D01*
X159788380Y-89281142D01*
X159836000Y-89185904D01*
X159883619Y-89138285D01*
X159978857Y-89090666D01*
X160074095Y-89090666D01*
X160216952Y-89138285D01*
X160788380Y-89709714D01*
X160788380Y-89090666D01*
X155614642Y-110974166D02*
X155662261Y-111021785D01*
X155709880Y-111164642D01*
X155709880Y-111259880D01*
X155662261Y-111402738D01*
X155567023Y-111497976D01*
X155471785Y-111545595D01*
X155281309Y-111593214D01*
X155138452Y-111593214D01*
X154947976Y-111545595D01*
X154852738Y-111497976D01*
X154757500Y-111402738D01*
X154709880Y-111259880D01*
X154709880Y-111164642D01*
X154757500Y-111021785D01*
X154805119Y-110974166D01*
X154709880Y-110640833D02*
X154709880Y-110021785D01*
X155090833Y-110355119D01*
X155090833Y-110212261D01*
X155138452Y-110117023D01*
X155186071Y-110069404D01*
X155281309Y-110021785D01*
X155519404Y-110021785D01*
X155614642Y-110069404D01*
X155662261Y-110117023D01*
X155709880Y-110212261D01*
X155709880Y-110497976D01*
X155662261Y-110593214D01*
X155614642Y-110640833D01*
X155709880Y-112815666D02*
X155233690Y-113149000D01*
X155709880Y-113387095D02*
X154709880Y-113387095D01*
X154709880Y-113006142D01*
X154757500Y-112910904D01*
X154805119Y-112863285D01*
X154900357Y-112815666D01*
X155043214Y-112815666D01*
X155138452Y-112863285D01*
X155186071Y-112910904D01*
X155233690Y-113006142D01*
X155233690Y-113387095D01*
X154709880Y-112482333D02*
X154709880Y-111863285D01*
X155090833Y-112196619D01*
X155090833Y-112053761D01*
X155138452Y-111958523D01*
X155186071Y-111910904D01*
X155281309Y-111863285D01*
X155519404Y-111863285D01*
X155614642Y-111910904D01*
X155662261Y-111958523D01*
X155709880Y-112053761D01*
X155709880Y-112339476D01*
X155662261Y-112434714D01*
X155614642Y-112482333D01*
X161948761Y-116966833D02*
X161996380Y-116823976D01*
X161996380Y-116585880D01*
X161948761Y-116490642D01*
X161901142Y-116443023D01*
X161805904Y-116395404D01*
X161710666Y-116395404D01*
X161615428Y-116443023D01*
X161567809Y-116490642D01*
X161520190Y-116585880D01*
X161472571Y-116776357D01*
X161424952Y-116871595D01*
X161377333Y-116919214D01*
X161282095Y-116966833D01*
X161186857Y-116966833D01*
X161091619Y-116919214D01*
X161044000Y-116871595D01*
X160996380Y-116776357D01*
X160996380Y-116538261D01*
X161044000Y-116395404D01*
X160996380Y-116062071D02*
X161996380Y-115823976D01*
X161282095Y-115633500D01*
X161996380Y-115443023D01*
X160996380Y-115204928D01*
X161996380Y-114300166D02*
X161996380Y-114871595D01*
X161996380Y-114585880D02*
X160996380Y-114585880D01*
X161139238Y-114681119D01*
X161234476Y-114776357D01*
X161282095Y-114871595D01*
X147629642Y-110402642D02*
X147582023Y-110450261D01*
X147439166Y-110497880D01*
X147343928Y-110497880D01*
X147201071Y-110450261D01*
X147105833Y-110355023D01*
X147058214Y-110259785D01*
X147010595Y-110069309D01*
X147010595Y-109926452D01*
X147058214Y-109735976D01*
X147105833Y-109640738D01*
X147201071Y-109545500D01*
X147343928Y-109497880D01*
X147439166Y-109497880D01*
X147582023Y-109545500D01*
X147629642Y-109593119D01*
X148582023Y-110497880D02*
X148010595Y-110497880D01*
X148296309Y-110497880D02*
X148296309Y-109497880D01*
X148201071Y-109640738D01*
X148105833Y-109735976D01*
X148010595Y-109783595D01*
X149201071Y-109497880D02*
X149296309Y-109497880D01*
X149391547Y-109545500D01*
X149439166Y-109593119D01*
X149486785Y-109688357D01*
X149534404Y-109878833D01*
X149534404Y-110116928D01*
X149486785Y-110307404D01*
X149439166Y-110402642D01*
X149391547Y-110450261D01*
X149296309Y-110497880D01*
X149201071Y-110497880D01*
X149105833Y-110450261D01*
X149058214Y-110402642D01*
X149010595Y-110307404D01*
X148962976Y-110116928D01*
X148962976Y-109878833D01*
X149010595Y-109688357D01*
X149058214Y-109593119D01*
X149105833Y-109545500D01*
X149201071Y-109497880D01*
X147629642Y-112484142D02*
X147582023Y-112531761D01*
X147439166Y-112579380D01*
X147343928Y-112579380D01*
X147201071Y-112531761D01*
X147105833Y-112436523D01*
X147058214Y-112341285D01*
X147010595Y-112150809D01*
X147010595Y-112007952D01*
X147058214Y-111817476D01*
X147105833Y-111722238D01*
X147201071Y-111627000D01*
X147343928Y-111579380D01*
X147439166Y-111579380D01*
X147582023Y-111627000D01*
X147629642Y-111674619D01*
X148582023Y-112579380D02*
X148010595Y-112579380D01*
X148296309Y-112579380D02*
X148296309Y-111579380D01*
X148201071Y-111722238D01*
X148105833Y-111817476D01*
X148010595Y-111865095D01*
X148915357Y-111579380D02*
X149534404Y-111579380D01*
X149201071Y-111960333D01*
X149343928Y-111960333D01*
X149439166Y-112007952D01*
X149486785Y-112055571D01*
X149534404Y-112150809D01*
X149534404Y-112388904D01*
X149486785Y-112484142D01*
X149439166Y-112531761D01*
X149343928Y-112579380D01*
X149058214Y-112579380D01*
X148962976Y-112531761D01*
X148915357Y-112484142D01*
X144359380Y-106870404D02*
X145168904Y-106870404D01*
X145264142Y-106822785D01*
X145311761Y-106775166D01*
X145359380Y-106679928D01*
X145359380Y-106489452D01*
X145311761Y-106394214D01*
X145264142Y-106346595D01*
X145168904Y-106298976D01*
X144359380Y-106298976D01*
X144454619Y-105870404D02*
X144407000Y-105822785D01*
X144359380Y-105727547D01*
X144359380Y-105489452D01*
X144407000Y-105394214D01*
X144454619Y-105346595D01*
X144549857Y-105298976D01*
X144645095Y-105298976D01*
X144787952Y-105346595D01*
X145359380Y-105918023D01*
X145359380Y-105298976D01*
X149899761Y-85161380D02*
X149566428Y-84685190D01*
X149328333Y-85161380D02*
X149328333Y-84161380D01*
X149709285Y-84161380D01*
X149804523Y-84209000D01*
X149852142Y-84256619D01*
X149899761Y-84351857D01*
X149899761Y-84494714D01*
X149852142Y-84589952D01*
X149804523Y-84637571D01*
X149709285Y-84685190D01*
X149328333Y-84685190D01*
X150185476Y-84161380D02*
X150518809Y-85161380D01*
X150852142Y-84161380D01*
X151709285Y-85161380D02*
X151137857Y-85161380D01*
X151423571Y-85161380D02*
X151423571Y-84161380D01*
X151328333Y-84304238D01*
X151233095Y-84399476D01*
X151137857Y-84447095D01*
X164068166Y-82720380D02*
X164068166Y-83434666D01*
X164020547Y-83577523D01*
X163925309Y-83672761D01*
X163782452Y-83720380D01*
X163687214Y-83720380D01*
X164496738Y-82815619D02*
X164544357Y-82768000D01*
X164639595Y-82720380D01*
X164877690Y-82720380D01*
X164972928Y-82768000D01*
X165020547Y-82815619D01*
X165068166Y-82910857D01*
X165068166Y-83006095D01*
X165020547Y-83148952D01*
X164449119Y-83720380D01*
X165068166Y-83720380D01*
X140660380Y-78716095D02*
X139660380Y-78716095D01*
X139660380Y-78478000D01*
X139708000Y-78335142D01*
X139803238Y-78239904D01*
X139898476Y-78192285D01*
X140088952Y-78144666D01*
X140231809Y-78144666D01*
X140422285Y-78192285D01*
X140517523Y-78239904D01*
X140612761Y-78335142D01*
X140660380Y-78478000D01*
X140660380Y-78716095D01*
X139660380Y-77811333D02*
X139660380Y-77192285D01*
X140041333Y-77525619D01*
X140041333Y-77382761D01*
X140088952Y-77287523D01*
X140136571Y-77239904D01*
X140231809Y-77192285D01*
X140469904Y-77192285D01*
X140565142Y-77239904D01*
X140612761Y-77287523D01*
X140660380Y-77382761D01*
X140660380Y-77668476D01*
X140612761Y-77763714D01*
X140565142Y-77811333D01*
X137232380Y-82665866D02*
X136756190Y-82999200D01*
X137232380Y-83237295D02*
X136232380Y-83237295D01*
X136232380Y-82856342D01*
X136280000Y-82761104D01*
X136327619Y-82713485D01*
X136422857Y-82665866D01*
X136565714Y-82665866D01*
X136660952Y-82713485D01*
X136708571Y-82761104D01*
X136756190Y-82856342D01*
X136756190Y-83237295D01*
X137232380Y-81713485D02*
X137232380Y-82284914D01*
X137232380Y-81999200D02*
X136232380Y-81999200D01*
X136375238Y-82094438D01*
X136470476Y-82189676D01*
X136518095Y-82284914D01*
X133930380Y-82665866D02*
X133454190Y-82999200D01*
X133930380Y-83237295D02*
X132930380Y-83237295D01*
X132930380Y-82856342D01*
X132978000Y-82761104D01*
X133025619Y-82713485D01*
X133120857Y-82665866D01*
X133263714Y-82665866D01*
X133358952Y-82713485D01*
X133406571Y-82761104D01*
X133454190Y-82856342D01*
X133454190Y-83237295D01*
X133025619Y-82284914D02*
X132978000Y-82237295D01*
X132930380Y-82142057D01*
X132930380Y-81903961D01*
X132978000Y-81808723D01*
X133025619Y-81761104D01*
X133120857Y-81713485D01*
X133216095Y-81713485D01*
X133358952Y-81761104D01*
X133930380Y-82332533D01*
X133930380Y-81713485D01*
X140534380Y-82665866D02*
X140058190Y-82999200D01*
X140534380Y-83237295D02*
X139534380Y-83237295D01*
X139534380Y-82856342D01*
X139582000Y-82761104D01*
X139629619Y-82713485D01*
X139724857Y-82665866D01*
X139867714Y-82665866D01*
X139962952Y-82713485D01*
X140010571Y-82761104D01*
X140058190Y-82856342D01*
X140058190Y-83237295D01*
X139962952Y-82094438D02*
X139915333Y-82189676D01*
X139867714Y-82237295D01*
X139772476Y-82284914D01*
X139724857Y-82284914D01*
X139629619Y-82237295D01*
X139582000Y-82189676D01*
X139534380Y-82094438D01*
X139534380Y-81903961D01*
X139582000Y-81808723D01*
X139629619Y-81761104D01*
X139724857Y-81713485D01*
X139772476Y-81713485D01*
X139867714Y-81761104D01*
X139915333Y-81808723D01*
X139962952Y-81903961D01*
X139962952Y-82094438D01*
X140010571Y-82189676D01*
X140058190Y-82237295D01*
X140153428Y-82284914D01*
X140343904Y-82284914D01*
X140439142Y-82237295D01*
X140486761Y-82189676D01*
X140534380Y-82094438D01*
X140534380Y-81903961D01*
X140486761Y-81808723D01*
X140439142Y-81761104D01*
X140343904Y-81713485D01*
X140153428Y-81713485D01*
X140058190Y-81761104D01*
X140010571Y-81808723D01*
X139962952Y-81903961D01*
X143962380Y-82716666D02*
X143486190Y-83050000D01*
X143962380Y-83288095D02*
X142962380Y-83288095D01*
X142962380Y-82907142D01*
X143010000Y-82811904D01*
X143057619Y-82764285D01*
X143152857Y-82716666D01*
X143295714Y-82716666D01*
X143390952Y-82764285D01*
X143438571Y-82811904D01*
X143486190Y-82907142D01*
X143486190Y-83288095D01*
X143962380Y-82240476D02*
X143962380Y-82050000D01*
X143914761Y-81954761D01*
X143867142Y-81907142D01*
X143724285Y-81811904D01*
X143533809Y-81764285D01*
X143152857Y-81764285D01*
X143057619Y-81811904D01*
X143010000Y-81859523D01*
X142962380Y-81954761D01*
X142962380Y-82145238D01*
X143010000Y-82240476D01*
X143057619Y-82288095D01*
X143152857Y-82335714D01*
X143390952Y-82335714D01*
X143486190Y-82288095D01*
X143533809Y-82240476D01*
X143581428Y-82145238D01*
X143581428Y-81954761D01*
X143533809Y-81859523D01*
X143486190Y-81811904D01*
X143390952Y-81764285D01*
X143962380Y-78874857D02*
X143486190Y-79208190D01*
X143962380Y-79446285D02*
X142962380Y-79446285D01*
X142962380Y-79065333D01*
X143010000Y-78970095D01*
X143057619Y-78922476D01*
X143152857Y-78874857D01*
X143295714Y-78874857D01*
X143390952Y-78922476D01*
X143438571Y-78970095D01*
X143486190Y-79065333D01*
X143486190Y-79446285D01*
X143962380Y-77922476D02*
X143962380Y-78493904D01*
X143962380Y-78208190D02*
X142962380Y-78208190D01*
X143105238Y-78303428D01*
X143200476Y-78398666D01*
X143248095Y-78493904D01*
X142962380Y-77303428D02*
X142962380Y-77208190D01*
X143010000Y-77112952D01*
X143057619Y-77065333D01*
X143152857Y-77017714D01*
X143343333Y-76970095D01*
X143581428Y-76970095D01*
X143771904Y-77017714D01*
X143867142Y-77065333D01*
X143914761Y-77112952D01*
X143962380Y-77208190D01*
X143962380Y-77303428D01*
X143914761Y-77398666D01*
X143867142Y-77446285D01*
X143771904Y-77493904D01*
X143581428Y-77541523D01*
X143343333Y-77541523D01*
X143152857Y-77493904D01*
X143057619Y-77446285D01*
X143010000Y-77398666D01*
X142962380Y-77303428D01*
X127690666Y-100903380D02*
X127690666Y-101617666D01*
X127643047Y-101760523D01*
X127547809Y-101855761D01*
X127404952Y-101903380D01*
X127309714Y-101903380D01*
X128166857Y-101903380D02*
X128166857Y-100903380D01*
X128547809Y-100903380D01*
X128643047Y-100951000D01*
X128690666Y-100998619D01*
X128738285Y-101093857D01*
X128738285Y-101236714D01*
X128690666Y-101331952D01*
X128643047Y-101379571D01*
X128547809Y-101427190D01*
X128166857Y-101427190D01*
X129119238Y-100998619D02*
X129166857Y-100951000D01*
X129262095Y-100903380D01*
X129500190Y-100903380D01*
X129595428Y-100951000D01*
X129643047Y-100998619D01*
X129690666Y-101093857D01*
X129690666Y-101189095D01*
X129643047Y-101331952D01*
X129071619Y-101903380D01*
X129690666Y-101903380D01*
X130790666Y-102703380D02*
X131409714Y-102703380D01*
X131076380Y-103084333D01*
X131219238Y-103084333D01*
X131314476Y-103131952D01*
X131362095Y-103179571D01*
X131409714Y-103274809D01*
X131409714Y-103512904D01*
X131362095Y-103608142D01*
X131314476Y-103655761D01*
X131219238Y-103703380D01*
X130933523Y-103703380D01*
X130838285Y-103655761D01*
X130790666Y-103608142D01*
X126209714Y-103703380D02*
X125638285Y-103703380D01*
X125924000Y-103703380D02*
X125924000Y-102703380D01*
X125828761Y-102846238D01*
X125733523Y-102941476D01*
X125638285Y-102989095D01*
X125795380Y-108529333D02*
X126509666Y-108529333D01*
X126652523Y-108576952D01*
X126747761Y-108672190D01*
X126795380Y-108815047D01*
X126795380Y-108910285D01*
X126795380Y-108053142D02*
X125795380Y-108053142D01*
X125795380Y-107672190D01*
X125843000Y-107576952D01*
X125890619Y-107529333D01*
X125985857Y-107481714D01*
X126128714Y-107481714D01*
X126223952Y-107529333D01*
X126271571Y-107576952D01*
X126319190Y-107672190D01*
X126319190Y-108053142D01*
X125795380Y-107148380D02*
X125795380Y-106529333D01*
X126176333Y-106862666D01*
X126176333Y-106719809D01*
X126223952Y-106624571D01*
X126271571Y-106576952D01*
X126366809Y-106529333D01*
X126604904Y-106529333D01*
X126700142Y-106576952D01*
X126747761Y-106624571D01*
X126795380Y-106719809D01*
X126795380Y-107005523D01*
X126747761Y-107100761D01*
X126700142Y-107148380D01*
X128595380Y-110010285D02*
X128595380Y-110581714D01*
X128595380Y-110296000D02*
X127595380Y-110296000D01*
X127738238Y-110391238D01*
X127833476Y-110486476D01*
X127881095Y-110581714D01*
X127595380Y-105429333D02*
X127595380Y-104810285D01*
X127976333Y-105143619D01*
X127976333Y-105000761D01*
X128023952Y-104905523D01*
X128071571Y-104857904D01*
X128166809Y-104810285D01*
X128404904Y-104810285D01*
X128500142Y-104857904D01*
X128547761Y-104905523D01*
X128595380Y-105000761D01*
X128595380Y-105286476D01*
X128547761Y-105381714D01*
X128500142Y-105429333D01*
X133929380Y-78843095D02*
X132929380Y-78843095D01*
X132929380Y-78605000D01*
X132977000Y-78462142D01*
X133072238Y-78366904D01*
X133167476Y-78319285D01*
X133357952Y-78271666D01*
X133500809Y-78271666D01*
X133691285Y-78319285D01*
X133786523Y-78366904D01*
X133881761Y-78462142D01*
X133929380Y-78605000D01*
X133929380Y-78843095D01*
X133024619Y-77890714D02*
X132977000Y-77843095D01*
X132929380Y-77747857D01*
X132929380Y-77509761D01*
X132977000Y-77414523D01*
X133024619Y-77366904D01*
X133119857Y-77319285D01*
X133215095Y-77319285D01*
X133357952Y-77366904D01*
X133929380Y-77938333D01*
X133929380Y-77319285D01*
X137358380Y-78716095D02*
X136358380Y-78716095D01*
X136358380Y-78478000D01*
X136406000Y-78335142D01*
X136501238Y-78239904D01*
X136596476Y-78192285D01*
X136786952Y-78144666D01*
X136929809Y-78144666D01*
X137120285Y-78192285D01*
X137215523Y-78239904D01*
X137310761Y-78335142D01*
X137358380Y-78478000D01*
X137358380Y-78716095D01*
X137358380Y-77192285D02*
X137358380Y-77763714D01*
X137358380Y-77478000D02*
X136358380Y-77478000D01*
X136501238Y-77573238D01*
X136596476Y-77668476D01*
X136644095Y-77763714D01*
X158202333Y-84907380D02*
X157869000Y-84431190D01*
X157630904Y-84907380D02*
X157630904Y-83907380D01*
X158011857Y-83907380D01*
X158107095Y-83955000D01*
X158154714Y-84002619D01*
X158202333Y-84097857D01*
X158202333Y-84240714D01*
X158154714Y-84335952D01*
X158107095Y-84383571D01*
X158011857Y-84431190D01*
X157630904Y-84431190D01*
X159059476Y-84240714D02*
X159059476Y-84907380D01*
X158821380Y-83859761D02*
X158583285Y-84574047D01*
X159202333Y-84574047D01*
M02*
