M48
; DRILL file {KiCad (5.1.12-1-10_14)} date Tuesday, December 21, 2021 at 11:16:07 AM
; FORMAT={-:-/ absolute / inch / decimal}
; #@! TF.CreationDate,2021-12-21T11:16:07-05:00
; #@! TF.GenerationSoftware,Kicad,Pcbnew,(5.1.12-1-10_14)
; #@! TF.FileFunction,Plated,1,4,PTH
FMAT,2
INCH
T1C0.0079
T2C0.0157
T3C0.0374
T4C0.0394
%
G90
G05
T1
X5.494Y-4.0991
X5.494Y-4.1464
X5.494Y-4.1936
X5.494Y-4.2409
X5.555Y-4.0991
X5.555Y-4.1464
X5.555Y-4.1936
X5.555Y-4.2409
X5.616Y-4.0991
X5.616Y-4.1464
X5.616Y-4.1936
X5.616Y-4.2409
T2
X4.995Y-4.125
X5.0Y-4.3346
X5.145Y-4.0
X5.1969Y-4.0866
X5.266Y-3.288
X5.276Y-3.9
X5.2953Y-4.0866
X5.31Y-4.442
X5.3248Y-4.1634
X5.3445Y-4.0945
X5.4843Y-4.4134
X5.565Y-3.955
X5.5807Y-3.3366
X5.6376Y-3.9724
X5.71Y-4.11
X5.7244Y-4.4764
X5.765Y-3.045
X5.7667Y-4.2441
X5.7775Y-3.605
X5.81Y-4.2509
X5.811Y-4.18
X5.8213Y-4.1
X5.8325Y-3.24
X5.8386Y-3.5748
X5.8412Y-3.9987
X5.8534Y-3.3434
X5.86Y-4.18
X5.89Y-3.54
X5.8976Y-4.1811
X5.8976Y-4.3071
X5.905Y-4.345
X5.937Y-3.5039
X5.9449Y-4.4685
X5.9754Y-3.785
X5.9941Y-4.3602
X6.0Y-4.49
X6.0728Y-4.4587
X6.0957Y-4.3858
X6.1122Y-4.439
X6.1252Y-4.3126
X6.1612Y-4.2912
X6.1625Y-3.8925
X6.175Y-3.065
X6.1999Y-4.0599
X6.2047Y-4.2835
X6.2283Y-4.1917
X6.235Y-3.14
X6.235Y-3.4275
X6.255Y-4.01
X6.2913Y-4.2008
X6.3484Y-4.1142
X6.35Y-4.2
X6.365Y-3.835
X6.365Y-3.925
X6.41Y-4.235
X6.4173Y-4.0453
T3
X5.1Y-3.46
X5.1Y-3.5584
X5.1Y-3.6569
X5.1Y-3.7553
X5.1Y-3.8537
X5.38Y-3.46
X5.38Y-3.5584
X5.38Y-3.6569
X5.38Y-3.7553
X5.38Y-3.8537
X5.595Y-4.605
X5.6934Y-4.605
X5.7919Y-4.605
X5.8903Y-4.605
T4
X6.4725Y-3.37
X6.4725Y-3.47
X6.4725Y-3.57
X6.4725Y-3.67
X6.4725Y-3.77
X6.4725Y-3.87
X6.4725Y-3.97
X6.4725Y-4.07
X6.4725Y-4.17
X6.4725Y-4.27
T0
M30
