G04 #@! TF.GenerationSoftware,KiCad,Pcbnew,(5.1.12-1-10_14)*
G04 #@! TF.CreationDate,2021-12-21T11:16:05-05:00*
G04 #@! TF.ProjectId,FlowerPeripheral,466c6f77-6572-4506-9572-697068657261,rev?*
G04 #@! TF.SameCoordinates,Original*
G04 #@! TF.FileFunction,Soldermask,Top*
G04 #@! TF.FilePolarity,Negative*
%FSLAX46Y46*%
G04 Gerber Fmt 4.6, Leading zero omitted, Abs format (unit mm)*
G04 Created by KiCad (PCBNEW (5.1.12-1-10_14)) date 2021-12-21 11:16:05*
%MOMM*%
%LPD*%
G01*
G04 APERTURE LIST*
%ADD10R,0.400000X3.200000*%
%ADD11C,1.000000*%
%ADD12C,0.100000*%
%ADD13R,2.400000X2.400000*%
%ADD14C,3.200000*%
%ADD15O,1.700000X1.950000*%
%ADD16O,1.950000X1.700000*%
%ADD17R,1.120000X2.160000*%
%ADD18R,2.800000X2.200000*%
%ADD19R,3.600000X4.100000*%
%ADD20R,3.300000X1.190000*%
%ADD21R,1.700000X1.700000*%
%ADD22O,1.700000X1.700000*%
%ADD23R,1.000000X1.500000*%
%ADD24R,1.500000X1.000000*%
G04 APERTURE END LIST*
G36*
G01*
X131175000Y-105775000D02*
X131175000Y-104825000D01*
G75*
G02*
X131425000Y-104575000I250000J0D01*
G01*
X132100000Y-104575000D01*
G75*
G02*
X132350000Y-104825000I0J-250000D01*
G01*
X132350000Y-105775000D01*
G75*
G02*
X132100000Y-106025000I-250000J0D01*
G01*
X131425000Y-106025000D01*
G75*
G02*
X131175000Y-105775000I0J250000D01*
G01*
G37*
G36*
G01*
X133250000Y-105775000D02*
X133250000Y-104825000D01*
G75*
G02*
X133500000Y-104575000I250000J0D01*
G01*
X134175000Y-104575000D01*
G75*
G02*
X134425000Y-104825000I0J-250000D01*
G01*
X134425000Y-105775000D01*
G75*
G02*
X134175000Y-106025000I-250000J0D01*
G01*
X133500000Y-106025000D01*
G75*
G02*
X133250000Y-105775000I0J250000D01*
G01*
G37*
D10*
X153892100Y-101282500D03*
X152692100Y-101282500D03*
X151492100Y-101282500D03*
G36*
G01*
X158043900Y-100413400D02*
X157093900Y-100413400D01*
G75*
G02*
X156843900Y-100163400I0J250000D01*
G01*
X156843900Y-99488400D01*
G75*
G02*
X157093900Y-99238400I250000J0D01*
G01*
X158043900Y-99238400D01*
G75*
G02*
X158293900Y-99488400I0J-250000D01*
G01*
X158293900Y-100163400D01*
G75*
G02*
X158043900Y-100413400I-250000J0D01*
G01*
G37*
G36*
G01*
X158043900Y-102488400D02*
X157093900Y-102488400D01*
G75*
G02*
X156843900Y-102238400I0J250000D01*
G01*
X156843900Y-101563400D01*
G75*
G02*
X157093900Y-101313400I250000J0D01*
G01*
X158043900Y-101313400D01*
G75*
G02*
X158293900Y-101563400I0J-250000D01*
G01*
X158293900Y-102238400D01*
G75*
G02*
X158043900Y-102488400I-250000J0D01*
G01*
G37*
G36*
G01*
X156011900Y-102488400D02*
X155061900Y-102488400D01*
G75*
G02*
X154811900Y-102238400I0J250000D01*
G01*
X154811900Y-101563400D01*
G75*
G02*
X155061900Y-101313400I250000J0D01*
G01*
X156011900Y-101313400D01*
G75*
G02*
X156261900Y-101563400I0J-250000D01*
G01*
X156261900Y-102238400D01*
G75*
G02*
X156011900Y-102488400I-250000J0D01*
G01*
G37*
G36*
G01*
X156011900Y-100413400D02*
X155061900Y-100413400D01*
G75*
G02*
X154811900Y-100163400I0J250000D01*
G01*
X154811900Y-99488400D01*
G75*
G02*
X155061900Y-99238400I250000J0D01*
G01*
X156011900Y-99238400D01*
G75*
G02*
X156261900Y-99488400I0J-250000D01*
G01*
X156261900Y-100163400D01*
G75*
G02*
X156011900Y-100413400I-250000J0D01*
G01*
G37*
G36*
G01*
X139868000Y-112510000D02*
X140818000Y-112510000D01*
G75*
G02*
X141068000Y-112760000I0J-250000D01*
G01*
X141068000Y-113435000D01*
G75*
G02*
X140818000Y-113685000I-250000J0D01*
G01*
X139868000Y-113685000D01*
G75*
G02*
X139618000Y-113435000I0J250000D01*
G01*
X139618000Y-112760000D01*
G75*
G02*
X139868000Y-112510000I250000J0D01*
G01*
G37*
G36*
G01*
X139868000Y-110435000D02*
X140818000Y-110435000D01*
G75*
G02*
X141068000Y-110685000I0J-250000D01*
G01*
X141068000Y-111360000D01*
G75*
G02*
X140818000Y-111610000I-250000J0D01*
G01*
X139868000Y-111610000D01*
G75*
G02*
X139618000Y-111360000I0J250000D01*
G01*
X139618000Y-110685000D01*
G75*
G02*
X139868000Y-110435000I250000J0D01*
G01*
G37*
D11*
X135382000Y-102616000D03*
D12*
G36*
X156286799Y-104127305D02*
G01*
X156283242Y-104139030D01*
X156277467Y-104149835D01*
X156269694Y-104159306D01*
X156206306Y-104222694D01*
X156196835Y-104230467D01*
X156186030Y-104236242D01*
X156174305Y-104239799D01*
X156162112Y-104241000D01*
X156100500Y-104241000D01*
X156088307Y-104239799D01*
X156076582Y-104236242D01*
X156065777Y-104230467D01*
X156056306Y-104222694D01*
X156048533Y-104213223D01*
X156042758Y-104202418D01*
X156039201Y-104190693D01*
X156038000Y-104178500D01*
X156038000Y-103503500D01*
X156039201Y-103491307D01*
X156042758Y-103479582D01*
X156048533Y-103468777D01*
X156056306Y-103459306D01*
X156065777Y-103451533D01*
X156076582Y-103445758D01*
X156088307Y-103442201D01*
X156100500Y-103441000D01*
X156225500Y-103441000D01*
X156237693Y-103442201D01*
X156249418Y-103445758D01*
X156260223Y-103451533D01*
X156269694Y-103459306D01*
X156277467Y-103468777D01*
X156283242Y-103479582D01*
X156286799Y-103491307D01*
X156288000Y-103503500D01*
X156288000Y-104115112D01*
X156286799Y-104127305D01*
G37*
G36*
G01*
X155650500Y-103441000D02*
X155775500Y-103441000D01*
G75*
G02*
X155838000Y-103503500I0J-62500D01*
G01*
X155838000Y-104178500D01*
G75*
G02*
X155775500Y-104241000I-62500J0D01*
G01*
X155650500Y-104241000D01*
G75*
G02*
X155588000Y-104178500I0J62500D01*
G01*
X155588000Y-103503500D01*
G75*
G02*
X155650500Y-103441000I62500J0D01*
G01*
G37*
G36*
G01*
X155200500Y-103441000D02*
X155325500Y-103441000D01*
G75*
G02*
X155388000Y-103503500I0J-62500D01*
G01*
X155388000Y-104178500D01*
G75*
G02*
X155325500Y-104241000I-62500J0D01*
G01*
X155200500Y-104241000D01*
G75*
G02*
X155138000Y-104178500I0J62500D01*
G01*
X155138000Y-103503500D01*
G75*
G02*
X155200500Y-103441000I62500J0D01*
G01*
G37*
G36*
G01*
X154750500Y-103441000D02*
X154875500Y-103441000D01*
G75*
G02*
X154938000Y-103503500I0J-62500D01*
G01*
X154938000Y-104178500D01*
G75*
G02*
X154875500Y-104241000I-62500J0D01*
G01*
X154750500Y-104241000D01*
G75*
G02*
X154688000Y-104178500I0J62500D01*
G01*
X154688000Y-103503500D01*
G75*
G02*
X154750500Y-103441000I62500J0D01*
G01*
G37*
G36*
G01*
X154300500Y-103441000D02*
X154425500Y-103441000D01*
G75*
G02*
X154488000Y-103503500I0J-62500D01*
G01*
X154488000Y-104178500D01*
G75*
G02*
X154425500Y-104241000I-62500J0D01*
G01*
X154300500Y-104241000D01*
G75*
G02*
X154238000Y-104178500I0J62500D01*
G01*
X154238000Y-103503500D01*
G75*
G02*
X154300500Y-103441000I62500J0D01*
G01*
G37*
G36*
G01*
X153850500Y-103441000D02*
X153975500Y-103441000D01*
G75*
G02*
X154038000Y-103503500I0J-62500D01*
G01*
X154038000Y-104178500D01*
G75*
G02*
X153975500Y-104241000I-62500J0D01*
G01*
X153850500Y-104241000D01*
G75*
G02*
X153788000Y-104178500I0J62500D01*
G01*
X153788000Y-103503500D01*
G75*
G02*
X153850500Y-103441000I62500J0D01*
G01*
G37*
G36*
X153586799Y-104190693D02*
G01*
X153583242Y-104202418D01*
X153577467Y-104213223D01*
X153569694Y-104222694D01*
X153560223Y-104230467D01*
X153549418Y-104236242D01*
X153537693Y-104239799D01*
X153525500Y-104241000D01*
X153463888Y-104241000D01*
X153451695Y-104239799D01*
X153439970Y-104236242D01*
X153429165Y-104230467D01*
X153419694Y-104222694D01*
X153356306Y-104159306D01*
X153348533Y-104149835D01*
X153342758Y-104139030D01*
X153339201Y-104127305D01*
X153338000Y-104115112D01*
X153338000Y-103503500D01*
X153339201Y-103491307D01*
X153342758Y-103479582D01*
X153348533Y-103468777D01*
X153356306Y-103459306D01*
X153365777Y-103451533D01*
X153376582Y-103445758D01*
X153388307Y-103442201D01*
X153400500Y-103441000D01*
X153525500Y-103441000D01*
X153537693Y-103442201D01*
X153549418Y-103445758D01*
X153560223Y-103451533D01*
X153569694Y-103459306D01*
X153577467Y-103468777D01*
X153583242Y-103479582D01*
X153586799Y-103491307D01*
X153588000Y-103503500D01*
X153588000Y-104178500D01*
X153586799Y-104190693D01*
G37*
G36*
X153261799Y-104515693D02*
G01*
X153258242Y-104527418D01*
X153252467Y-104538223D01*
X153244694Y-104547694D01*
X153235223Y-104555467D01*
X153224418Y-104561242D01*
X153212693Y-104564799D01*
X153200500Y-104566000D01*
X152525500Y-104566000D01*
X152513307Y-104564799D01*
X152501582Y-104561242D01*
X152490777Y-104555467D01*
X152481306Y-104547694D01*
X152473533Y-104538223D01*
X152467758Y-104527418D01*
X152464201Y-104515693D01*
X152463000Y-104503500D01*
X152463000Y-104378500D01*
X152464201Y-104366307D01*
X152467758Y-104354582D01*
X152473533Y-104343777D01*
X152481306Y-104334306D01*
X152490777Y-104326533D01*
X152501582Y-104320758D01*
X152513307Y-104317201D01*
X152525500Y-104316000D01*
X153137112Y-104316000D01*
X153149305Y-104317201D01*
X153161030Y-104320758D01*
X153171835Y-104326533D01*
X153181306Y-104334306D01*
X153244694Y-104397694D01*
X153252467Y-104407165D01*
X153258242Y-104417970D01*
X153261799Y-104429695D01*
X153263000Y-104441888D01*
X153263000Y-104503500D01*
X153261799Y-104515693D01*
G37*
G36*
G01*
X152525500Y-104766000D02*
X153200500Y-104766000D01*
G75*
G02*
X153263000Y-104828500I0J-62500D01*
G01*
X153263000Y-104953500D01*
G75*
G02*
X153200500Y-105016000I-62500J0D01*
G01*
X152525500Y-105016000D01*
G75*
G02*
X152463000Y-104953500I0J62500D01*
G01*
X152463000Y-104828500D01*
G75*
G02*
X152525500Y-104766000I62500J0D01*
G01*
G37*
G36*
G01*
X152525500Y-105216000D02*
X153200500Y-105216000D01*
G75*
G02*
X153263000Y-105278500I0J-62500D01*
G01*
X153263000Y-105403500D01*
G75*
G02*
X153200500Y-105466000I-62500J0D01*
G01*
X152525500Y-105466000D01*
G75*
G02*
X152463000Y-105403500I0J62500D01*
G01*
X152463000Y-105278500D01*
G75*
G02*
X152525500Y-105216000I62500J0D01*
G01*
G37*
G36*
G01*
X152525500Y-105666000D02*
X153200500Y-105666000D01*
G75*
G02*
X153263000Y-105728500I0J-62500D01*
G01*
X153263000Y-105853500D01*
G75*
G02*
X153200500Y-105916000I-62500J0D01*
G01*
X152525500Y-105916000D01*
G75*
G02*
X152463000Y-105853500I0J62500D01*
G01*
X152463000Y-105728500D01*
G75*
G02*
X152525500Y-105666000I62500J0D01*
G01*
G37*
G36*
G01*
X152525500Y-106116000D02*
X153200500Y-106116000D01*
G75*
G02*
X153263000Y-106178500I0J-62500D01*
G01*
X153263000Y-106303500D01*
G75*
G02*
X153200500Y-106366000I-62500J0D01*
G01*
X152525500Y-106366000D01*
G75*
G02*
X152463000Y-106303500I0J62500D01*
G01*
X152463000Y-106178500D01*
G75*
G02*
X152525500Y-106116000I62500J0D01*
G01*
G37*
G36*
G01*
X152525500Y-106566000D02*
X153200500Y-106566000D01*
G75*
G02*
X153263000Y-106628500I0J-62500D01*
G01*
X153263000Y-106753500D01*
G75*
G02*
X153200500Y-106816000I-62500J0D01*
G01*
X152525500Y-106816000D01*
G75*
G02*
X152463000Y-106753500I0J62500D01*
G01*
X152463000Y-106628500D01*
G75*
G02*
X152525500Y-106566000I62500J0D01*
G01*
G37*
G36*
X153261799Y-107152305D02*
G01*
X153258242Y-107164030D01*
X153252467Y-107174835D01*
X153244694Y-107184306D01*
X153181306Y-107247694D01*
X153171835Y-107255467D01*
X153161030Y-107261242D01*
X153149305Y-107264799D01*
X153137112Y-107266000D01*
X152525500Y-107266000D01*
X152513307Y-107264799D01*
X152501582Y-107261242D01*
X152490777Y-107255467D01*
X152481306Y-107247694D01*
X152473533Y-107238223D01*
X152467758Y-107227418D01*
X152464201Y-107215693D01*
X152463000Y-107203500D01*
X152463000Y-107078500D01*
X152464201Y-107066307D01*
X152467758Y-107054582D01*
X152473533Y-107043777D01*
X152481306Y-107034306D01*
X152490777Y-107026533D01*
X152501582Y-107020758D01*
X152513307Y-107017201D01*
X152525500Y-107016000D01*
X153200500Y-107016000D01*
X153212693Y-107017201D01*
X153224418Y-107020758D01*
X153235223Y-107026533D01*
X153244694Y-107034306D01*
X153252467Y-107043777D01*
X153258242Y-107054582D01*
X153261799Y-107066307D01*
X153263000Y-107078500D01*
X153263000Y-107140112D01*
X153261799Y-107152305D01*
G37*
G36*
X153586799Y-108090693D02*
G01*
X153583242Y-108102418D01*
X153577467Y-108113223D01*
X153569694Y-108122694D01*
X153560223Y-108130467D01*
X153549418Y-108136242D01*
X153537693Y-108139799D01*
X153525500Y-108141000D01*
X153400500Y-108141000D01*
X153388307Y-108139799D01*
X153376582Y-108136242D01*
X153365777Y-108130467D01*
X153356306Y-108122694D01*
X153348533Y-108113223D01*
X153342758Y-108102418D01*
X153339201Y-108090693D01*
X153338000Y-108078500D01*
X153338000Y-107466888D01*
X153339201Y-107454695D01*
X153342758Y-107442970D01*
X153348533Y-107432165D01*
X153356306Y-107422694D01*
X153419694Y-107359306D01*
X153429165Y-107351533D01*
X153439970Y-107345758D01*
X153451695Y-107342201D01*
X153463888Y-107341000D01*
X153525500Y-107341000D01*
X153537693Y-107342201D01*
X153549418Y-107345758D01*
X153560223Y-107351533D01*
X153569694Y-107359306D01*
X153577467Y-107368777D01*
X153583242Y-107379582D01*
X153586799Y-107391307D01*
X153588000Y-107403500D01*
X153588000Y-108078500D01*
X153586799Y-108090693D01*
G37*
G36*
G01*
X153850500Y-107341000D02*
X153975500Y-107341000D01*
G75*
G02*
X154038000Y-107403500I0J-62500D01*
G01*
X154038000Y-108078500D01*
G75*
G02*
X153975500Y-108141000I-62500J0D01*
G01*
X153850500Y-108141000D01*
G75*
G02*
X153788000Y-108078500I0J62500D01*
G01*
X153788000Y-107403500D01*
G75*
G02*
X153850500Y-107341000I62500J0D01*
G01*
G37*
G36*
G01*
X154300500Y-107341000D02*
X154425500Y-107341000D01*
G75*
G02*
X154488000Y-107403500I0J-62500D01*
G01*
X154488000Y-108078500D01*
G75*
G02*
X154425500Y-108141000I-62500J0D01*
G01*
X154300500Y-108141000D01*
G75*
G02*
X154238000Y-108078500I0J62500D01*
G01*
X154238000Y-107403500D01*
G75*
G02*
X154300500Y-107341000I62500J0D01*
G01*
G37*
G36*
G01*
X154750500Y-107341000D02*
X154875500Y-107341000D01*
G75*
G02*
X154938000Y-107403500I0J-62500D01*
G01*
X154938000Y-108078500D01*
G75*
G02*
X154875500Y-108141000I-62500J0D01*
G01*
X154750500Y-108141000D01*
G75*
G02*
X154688000Y-108078500I0J62500D01*
G01*
X154688000Y-107403500D01*
G75*
G02*
X154750500Y-107341000I62500J0D01*
G01*
G37*
G36*
G01*
X155200500Y-107341000D02*
X155325500Y-107341000D01*
G75*
G02*
X155388000Y-107403500I0J-62500D01*
G01*
X155388000Y-108078500D01*
G75*
G02*
X155325500Y-108141000I-62500J0D01*
G01*
X155200500Y-108141000D01*
G75*
G02*
X155138000Y-108078500I0J62500D01*
G01*
X155138000Y-107403500D01*
G75*
G02*
X155200500Y-107341000I62500J0D01*
G01*
G37*
G36*
G01*
X155650500Y-107341000D02*
X155775500Y-107341000D01*
G75*
G02*
X155838000Y-107403500I0J-62500D01*
G01*
X155838000Y-108078500D01*
G75*
G02*
X155775500Y-108141000I-62500J0D01*
G01*
X155650500Y-108141000D01*
G75*
G02*
X155588000Y-108078500I0J62500D01*
G01*
X155588000Y-107403500D01*
G75*
G02*
X155650500Y-107341000I62500J0D01*
G01*
G37*
G36*
X156286799Y-108090693D02*
G01*
X156283242Y-108102418D01*
X156277467Y-108113223D01*
X156269694Y-108122694D01*
X156260223Y-108130467D01*
X156249418Y-108136242D01*
X156237693Y-108139799D01*
X156225500Y-108141000D01*
X156100500Y-108141000D01*
X156088307Y-108139799D01*
X156076582Y-108136242D01*
X156065777Y-108130467D01*
X156056306Y-108122694D01*
X156048533Y-108113223D01*
X156042758Y-108102418D01*
X156039201Y-108090693D01*
X156038000Y-108078500D01*
X156038000Y-107403500D01*
X156039201Y-107391307D01*
X156042758Y-107379582D01*
X156048533Y-107368777D01*
X156056306Y-107359306D01*
X156065777Y-107351533D01*
X156076582Y-107345758D01*
X156088307Y-107342201D01*
X156100500Y-107341000D01*
X156162112Y-107341000D01*
X156174305Y-107342201D01*
X156186030Y-107345758D01*
X156196835Y-107351533D01*
X156206306Y-107359306D01*
X156269694Y-107422694D01*
X156277467Y-107432165D01*
X156283242Y-107442970D01*
X156286799Y-107454695D01*
X156288000Y-107466888D01*
X156288000Y-108078500D01*
X156286799Y-108090693D01*
G37*
G36*
X157161799Y-107215693D02*
G01*
X157158242Y-107227418D01*
X157152467Y-107238223D01*
X157144694Y-107247694D01*
X157135223Y-107255467D01*
X157124418Y-107261242D01*
X157112693Y-107264799D01*
X157100500Y-107266000D01*
X156488888Y-107266000D01*
X156476695Y-107264799D01*
X156464970Y-107261242D01*
X156454165Y-107255467D01*
X156444694Y-107247694D01*
X156381306Y-107184306D01*
X156373533Y-107174835D01*
X156367758Y-107164030D01*
X156364201Y-107152305D01*
X156363000Y-107140112D01*
X156363000Y-107078500D01*
X156364201Y-107066307D01*
X156367758Y-107054582D01*
X156373533Y-107043777D01*
X156381306Y-107034306D01*
X156390777Y-107026533D01*
X156401582Y-107020758D01*
X156413307Y-107017201D01*
X156425500Y-107016000D01*
X157100500Y-107016000D01*
X157112693Y-107017201D01*
X157124418Y-107020758D01*
X157135223Y-107026533D01*
X157144694Y-107034306D01*
X157152467Y-107043777D01*
X157158242Y-107054582D01*
X157161799Y-107066307D01*
X157163000Y-107078500D01*
X157163000Y-107203500D01*
X157161799Y-107215693D01*
G37*
G36*
G01*
X156425500Y-106566000D02*
X157100500Y-106566000D01*
G75*
G02*
X157163000Y-106628500I0J-62500D01*
G01*
X157163000Y-106753500D01*
G75*
G02*
X157100500Y-106816000I-62500J0D01*
G01*
X156425500Y-106816000D01*
G75*
G02*
X156363000Y-106753500I0J62500D01*
G01*
X156363000Y-106628500D01*
G75*
G02*
X156425500Y-106566000I62500J0D01*
G01*
G37*
G36*
G01*
X156425500Y-106116000D02*
X157100500Y-106116000D01*
G75*
G02*
X157163000Y-106178500I0J-62500D01*
G01*
X157163000Y-106303500D01*
G75*
G02*
X157100500Y-106366000I-62500J0D01*
G01*
X156425500Y-106366000D01*
G75*
G02*
X156363000Y-106303500I0J62500D01*
G01*
X156363000Y-106178500D01*
G75*
G02*
X156425500Y-106116000I62500J0D01*
G01*
G37*
G36*
G01*
X156425500Y-105666000D02*
X157100500Y-105666000D01*
G75*
G02*
X157163000Y-105728500I0J-62500D01*
G01*
X157163000Y-105853500D01*
G75*
G02*
X157100500Y-105916000I-62500J0D01*
G01*
X156425500Y-105916000D01*
G75*
G02*
X156363000Y-105853500I0J62500D01*
G01*
X156363000Y-105728500D01*
G75*
G02*
X156425500Y-105666000I62500J0D01*
G01*
G37*
G36*
G01*
X156425500Y-105216000D02*
X157100500Y-105216000D01*
G75*
G02*
X157163000Y-105278500I0J-62500D01*
G01*
X157163000Y-105403500D01*
G75*
G02*
X157100500Y-105466000I-62500J0D01*
G01*
X156425500Y-105466000D01*
G75*
G02*
X156363000Y-105403500I0J62500D01*
G01*
X156363000Y-105278500D01*
G75*
G02*
X156425500Y-105216000I62500J0D01*
G01*
G37*
G36*
G01*
X156425500Y-104766000D02*
X157100500Y-104766000D01*
G75*
G02*
X157163000Y-104828500I0J-62500D01*
G01*
X157163000Y-104953500D01*
G75*
G02*
X157100500Y-105016000I-62500J0D01*
G01*
X156425500Y-105016000D01*
G75*
G02*
X156363000Y-104953500I0J62500D01*
G01*
X156363000Y-104828500D01*
G75*
G02*
X156425500Y-104766000I62500J0D01*
G01*
G37*
G36*
X157161799Y-104515693D02*
G01*
X157158242Y-104527418D01*
X157152467Y-104538223D01*
X157144694Y-104547694D01*
X157135223Y-104555467D01*
X157124418Y-104561242D01*
X157112693Y-104564799D01*
X157100500Y-104566000D01*
X156425500Y-104566000D01*
X156413307Y-104564799D01*
X156401582Y-104561242D01*
X156390777Y-104555467D01*
X156381306Y-104547694D01*
X156373533Y-104538223D01*
X156367758Y-104527418D01*
X156364201Y-104515693D01*
X156363000Y-104503500D01*
X156363000Y-104441888D01*
X156364201Y-104429695D01*
X156367758Y-104417970D01*
X156373533Y-104407165D01*
X156381306Y-104397694D01*
X156444694Y-104334306D01*
X156454165Y-104326533D01*
X156464970Y-104320758D01*
X156476695Y-104317201D01*
X156488888Y-104316000D01*
X157100500Y-104316000D01*
X157112693Y-104317201D01*
X157124418Y-104320758D01*
X157135223Y-104326533D01*
X157144694Y-104334306D01*
X157152467Y-104343777D01*
X157158242Y-104354582D01*
X157161799Y-104366307D01*
X157163000Y-104378500D01*
X157163000Y-104503500D01*
X157161799Y-104515693D01*
G37*
D13*
X154813000Y-105791000D03*
D11*
X133350000Y-102616000D03*
D12*
G36*
X144157000Y-96751000D02*
G01*
X144157000Y-96251000D01*
X144157602Y-96251000D01*
X144157602Y-96226466D01*
X144162412Y-96177635D01*
X144171984Y-96129510D01*
X144186228Y-96082555D01*
X144205005Y-96037222D01*
X144228136Y-95993949D01*
X144255396Y-95953150D01*
X144286524Y-95915221D01*
X144321221Y-95880524D01*
X144359150Y-95849396D01*
X144399949Y-95822136D01*
X144443222Y-95799005D01*
X144488555Y-95780228D01*
X144535510Y-95765984D01*
X144583635Y-95756412D01*
X144632466Y-95751602D01*
X144657000Y-95751602D01*
X144657000Y-95751000D01*
X145157000Y-95751000D01*
X145157000Y-95751602D01*
X145181534Y-95751602D01*
X145230365Y-95756412D01*
X145278490Y-95765984D01*
X145325445Y-95780228D01*
X145370778Y-95799005D01*
X145414051Y-95822136D01*
X145454850Y-95849396D01*
X145492779Y-95880524D01*
X145527476Y-95915221D01*
X145558604Y-95953150D01*
X145585864Y-95993949D01*
X145608995Y-96037222D01*
X145627772Y-96082555D01*
X145642016Y-96129510D01*
X145651588Y-96177635D01*
X145656398Y-96226466D01*
X145656398Y-96251000D01*
X145657000Y-96251000D01*
X145657000Y-96751000D01*
X144157000Y-96751000D01*
G37*
G36*
X145656398Y-97551000D02*
G01*
X145656398Y-97575534D01*
X145651588Y-97624365D01*
X145642016Y-97672490D01*
X145627772Y-97719445D01*
X145608995Y-97764778D01*
X145585864Y-97808051D01*
X145558604Y-97848850D01*
X145527476Y-97886779D01*
X145492779Y-97921476D01*
X145454850Y-97952604D01*
X145414051Y-97979864D01*
X145370778Y-98002995D01*
X145325445Y-98021772D01*
X145278490Y-98036016D01*
X145230365Y-98045588D01*
X145181534Y-98050398D01*
X145157000Y-98050398D01*
X145157000Y-98051000D01*
X144657000Y-98051000D01*
X144657000Y-98050398D01*
X144632466Y-98050398D01*
X144583635Y-98045588D01*
X144535510Y-98036016D01*
X144488555Y-98021772D01*
X144443222Y-98002995D01*
X144399949Y-97979864D01*
X144359150Y-97952604D01*
X144321221Y-97921476D01*
X144286524Y-97886779D01*
X144255396Y-97848850D01*
X144228136Y-97808051D01*
X144205005Y-97764778D01*
X144186228Y-97719445D01*
X144171984Y-97672490D01*
X144162412Y-97624365D01*
X144157602Y-97575534D01*
X144157602Y-97551000D01*
X144157000Y-97551000D01*
X144157000Y-97051000D01*
X145657000Y-97051000D01*
X145657000Y-97551000D01*
X145656398Y-97551000D01*
G37*
G36*
G01*
X135567000Y-108525000D02*
X135567000Y-109475000D01*
G75*
G02*
X135317000Y-109725000I-250000J0D01*
G01*
X134642000Y-109725000D01*
G75*
G02*
X134392000Y-109475000I0J250000D01*
G01*
X134392000Y-108525000D01*
G75*
G02*
X134642000Y-108275000I250000J0D01*
G01*
X135317000Y-108275000D01*
G75*
G02*
X135567000Y-108525000I0J-250000D01*
G01*
G37*
G36*
G01*
X137642000Y-108525000D02*
X137642000Y-109475000D01*
G75*
G02*
X137392000Y-109725000I-250000J0D01*
G01*
X136717000Y-109725000D01*
G75*
G02*
X136467000Y-109475000I0J250000D01*
G01*
X136467000Y-108525000D01*
G75*
G02*
X136717000Y-108275000I250000J0D01*
G01*
X137392000Y-108275000D01*
G75*
G02*
X137642000Y-108525000I0J-250000D01*
G01*
G37*
G36*
G01*
X144552000Y-103218000D02*
X144552000Y-102268000D01*
G75*
G02*
X144802000Y-102018000I250000J0D01*
G01*
X145477000Y-102018000D01*
G75*
G02*
X145727000Y-102268000I0J-250000D01*
G01*
X145727000Y-103218000D01*
G75*
G02*
X145477000Y-103468000I-250000J0D01*
G01*
X144802000Y-103468000D01*
G75*
G02*
X144552000Y-103218000I0J250000D01*
G01*
G37*
G36*
G01*
X146627000Y-103218000D02*
X146627000Y-102268000D01*
G75*
G02*
X146877000Y-102018000I250000J0D01*
G01*
X147552000Y-102018000D01*
G75*
G02*
X147802000Y-102268000I0J-250000D01*
G01*
X147802000Y-103218000D01*
G75*
G02*
X147552000Y-103468000I-250000J0D01*
G01*
X146877000Y-103468000D01*
G75*
G02*
X146627000Y-103218000I0J250000D01*
G01*
G37*
G36*
G01*
X133244000Y-107838000D02*
X132294000Y-107838000D01*
G75*
G02*
X132044000Y-107588000I0J250000D01*
G01*
X132044000Y-106913000D01*
G75*
G02*
X132294000Y-106663000I250000J0D01*
G01*
X133244000Y-106663000D01*
G75*
G02*
X133494000Y-106913000I0J-250000D01*
G01*
X133494000Y-107588000D01*
G75*
G02*
X133244000Y-107838000I-250000J0D01*
G01*
G37*
G36*
G01*
X133244000Y-109913000D02*
X132294000Y-109913000D01*
G75*
G02*
X132044000Y-109663000I0J250000D01*
G01*
X132044000Y-108988000D01*
G75*
G02*
X132294000Y-108738000I250000J0D01*
G01*
X133244000Y-108738000D01*
G75*
G02*
X133494000Y-108988000I0J-250000D01*
G01*
X133494000Y-109663000D01*
G75*
G02*
X133244000Y-109913000I-250000J0D01*
G01*
G37*
G36*
G01*
X137836000Y-110435000D02*
X138786000Y-110435000D01*
G75*
G02*
X139036000Y-110685000I0J-250000D01*
G01*
X139036000Y-111360000D01*
G75*
G02*
X138786000Y-111610000I-250000J0D01*
G01*
X137836000Y-111610000D01*
G75*
G02*
X137586000Y-111360000I0J250000D01*
G01*
X137586000Y-110685000D01*
G75*
G02*
X137836000Y-110435000I250000J0D01*
G01*
G37*
G36*
G01*
X137836000Y-112510000D02*
X138786000Y-112510000D01*
G75*
G02*
X139036000Y-112760000I0J-250000D01*
G01*
X139036000Y-113435000D01*
G75*
G02*
X138786000Y-113685000I-250000J0D01*
G01*
X137836000Y-113685000D01*
G75*
G02*
X137586000Y-113435000I0J250000D01*
G01*
X137586000Y-112760000D01*
G75*
G02*
X137836000Y-112510000I250000J0D01*
G01*
G37*
G36*
G01*
X141064000Y-96705000D02*
X140114000Y-96705000D01*
G75*
G02*
X139864000Y-96455000I0J250000D01*
G01*
X139864000Y-95780000D01*
G75*
G02*
X140114000Y-95530000I250000J0D01*
G01*
X141064000Y-95530000D01*
G75*
G02*
X141314000Y-95780000I0J-250000D01*
G01*
X141314000Y-96455000D01*
G75*
G02*
X141064000Y-96705000I-250000J0D01*
G01*
G37*
G36*
G01*
X141064000Y-98780000D02*
X140114000Y-98780000D01*
G75*
G02*
X139864000Y-98530000I0J250000D01*
G01*
X139864000Y-97855000D01*
G75*
G02*
X140114000Y-97605000I250000J0D01*
G01*
X141064000Y-97605000D01*
G75*
G02*
X141314000Y-97855000I0J-250000D01*
G01*
X141314000Y-98530000D01*
G75*
G02*
X141064000Y-98780000I-250000J0D01*
G01*
G37*
G36*
G01*
X136754000Y-113685000D02*
X135804000Y-113685000D01*
G75*
G02*
X135554000Y-113435000I0J250000D01*
G01*
X135554000Y-112760000D01*
G75*
G02*
X135804000Y-112510000I250000J0D01*
G01*
X136754000Y-112510000D01*
G75*
G02*
X137004000Y-112760000I0J-250000D01*
G01*
X137004000Y-113435000D01*
G75*
G02*
X136754000Y-113685000I-250000J0D01*
G01*
G37*
G36*
G01*
X136754000Y-111610000D02*
X135804000Y-111610000D01*
G75*
G02*
X135554000Y-111360000I0J250000D01*
G01*
X135554000Y-110685000D01*
G75*
G02*
X135804000Y-110435000I250000J0D01*
G01*
X136754000Y-110435000D01*
G75*
G02*
X137004000Y-110685000I0J-250000D01*
G01*
X137004000Y-111360000D01*
G75*
G02*
X136754000Y-111610000I-250000J0D01*
G01*
G37*
G36*
G01*
X131187001Y-109888000D02*
X130286999Y-109888000D01*
G75*
G02*
X130037000Y-109638001I0J249999D01*
G01*
X130037000Y-108937999D01*
G75*
G02*
X130286999Y-108688000I249999J0D01*
G01*
X131187001Y-108688000D01*
G75*
G02*
X131437000Y-108937999I0J-249999D01*
G01*
X131437000Y-109638001D01*
G75*
G02*
X131187001Y-109888000I-249999J0D01*
G01*
G37*
G36*
G01*
X131187001Y-107888000D02*
X130286999Y-107888000D01*
G75*
G02*
X130037000Y-107638001I0J249999D01*
G01*
X130037000Y-106937999D01*
G75*
G02*
X130286999Y-106688000I249999J0D01*
G01*
X131187001Y-106688000D01*
G75*
G02*
X131437000Y-106937999I0J-249999D01*
G01*
X131437000Y-107638001D01*
G75*
G02*
X131187001Y-107888000I-249999J0D01*
G01*
G37*
G36*
G01*
X143649999Y-110600000D02*
X144550001Y-110600000D01*
G75*
G02*
X144800000Y-110849999I0J-249999D01*
G01*
X144800000Y-111550001D01*
G75*
G02*
X144550001Y-111800000I-249999J0D01*
G01*
X143649999Y-111800000D01*
G75*
G02*
X143400000Y-111550001I0J249999D01*
G01*
X143400000Y-110849999D01*
G75*
G02*
X143649999Y-110600000I249999J0D01*
G01*
G37*
G36*
G01*
X143649999Y-112600000D02*
X144550001Y-112600000D01*
G75*
G02*
X144800000Y-112849999I0J-249999D01*
G01*
X144800000Y-113550001D01*
G75*
G02*
X144550001Y-113800000I-249999J0D01*
G01*
X143649999Y-113800000D01*
G75*
G02*
X143400000Y-113550001I0J249999D01*
G01*
X143400000Y-112849999D01*
G75*
G02*
X143649999Y-112600000I249999J0D01*
G01*
G37*
G36*
G01*
X143071001Y-96755000D02*
X142170999Y-96755000D01*
G75*
G02*
X141921000Y-96505001I0J249999D01*
G01*
X141921000Y-95804999D01*
G75*
G02*
X142170999Y-95555000I249999J0D01*
G01*
X143071001Y-95555000D01*
G75*
G02*
X143321000Y-95804999I0J-249999D01*
G01*
X143321000Y-96505001D01*
G75*
G02*
X143071001Y-96755000I-249999J0D01*
G01*
G37*
G36*
G01*
X143071001Y-98755000D02*
X142170999Y-98755000D01*
G75*
G02*
X141921000Y-98505001I0J249999D01*
G01*
X141921000Y-97804999D01*
G75*
G02*
X142170999Y-97555000I249999J0D01*
G01*
X143071001Y-97555000D01*
G75*
G02*
X143321000Y-97804999I0J-249999D01*
G01*
X143321000Y-98505001D01*
G75*
G02*
X143071001Y-98755000I-249999J0D01*
G01*
G37*
D14*
X161500000Y-112500000D03*
X161500000Y-81500000D03*
X130500000Y-81500000D03*
X130500000Y-112500000D03*
G36*
G01*
X141263000Y-117692000D02*
X141263000Y-116242000D01*
G75*
G02*
X141513000Y-115992000I250000J0D01*
G01*
X142713000Y-115992000D01*
G75*
G02*
X142963000Y-116242000I0J-250000D01*
G01*
X142963000Y-117692000D01*
G75*
G02*
X142713000Y-117942000I-250000J0D01*
G01*
X141513000Y-117942000D01*
G75*
G02*
X141263000Y-117692000I0J250000D01*
G01*
G37*
D15*
X144613000Y-116967000D03*
X147113000Y-116967000D03*
X149613000Y-116967000D03*
D16*
X129540000Y-97884000D03*
X129540000Y-95384000D03*
X129540000Y-92884000D03*
X129540000Y-90384000D03*
G36*
G01*
X128815000Y-87034000D02*
X130265000Y-87034000D01*
G75*
G02*
X130515000Y-87284000I0J-250000D01*
G01*
X130515000Y-88484000D01*
G75*
G02*
X130265000Y-88734000I-250000J0D01*
G01*
X128815000Y-88734000D01*
G75*
G02*
X128565000Y-88484000I0J250000D01*
G01*
X128565000Y-87284000D01*
G75*
G02*
X128815000Y-87034000I250000J0D01*
G01*
G37*
G36*
G01*
X135927000Y-87034000D02*
X137377000Y-87034000D01*
G75*
G02*
X137627000Y-87284000I0J-250000D01*
G01*
X137627000Y-88484000D01*
G75*
G02*
X137377000Y-88734000I-250000J0D01*
G01*
X135927000Y-88734000D01*
G75*
G02*
X135677000Y-88484000I0J250000D01*
G01*
X135677000Y-87284000D01*
G75*
G02*
X135927000Y-87034000I250000J0D01*
G01*
G37*
X136652000Y-90384000D03*
X136652000Y-92884000D03*
X136652000Y-95384000D03*
X136652000Y-97884000D03*
D17*
X157226000Y-87059000D03*
X141986000Y-93789000D03*
X154686000Y-87059000D03*
X144526000Y-93789000D03*
X152146000Y-87059000D03*
X147066000Y-93789000D03*
X149606000Y-87059000D03*
X149606000Y-93789000D03*
X147066000Y-87059000D03*
X152146000Y-93789000D03*
X144526000Y-87059000D03*
X154686000Y-93789000D03*
X141986000Y-87059000D03*
X157226000Y-93789000D03*
G36*
G01*
X156109000Y-111092000D02*
X156109000Y-110142000D01*
G75*
G02*
X156359000Y-109892000I250000J0D01*
G01*
X157034000Y-109892000D01*
G75*
G02*
X157284000Y-110142000I0J-250000D01*
G01*
X157284000Y-111092000D01*
G75*
G02*
X157034000Y-111342000I-250000J0D01*
G01*
X156359000Y-111342000D01*
G75*
G02*
X156109000Y-111092000I0J250000D01*
G01*
G37*
G36*
G01*
X158184000Y-111092000D02*
X158184000Y-110142000D01*
G75*
G02*
X158434000Y-109892000I250000J0D01*
G01*
X159109000Y-109892000D01*
G75*
G02*
X159359000Y-110142000I0J-250000D01*
G01*
X159359000Y-111092000D01*
G75*
G02*
X159109000Y-111342000I-250000J0D01*
G01*
X158434000Y-111342000D01*
G75*
G02*
X158184000Y-111092000I0J250000D01*
G01*
G37*
G36*
G01*
X159334000Y-112198999D02*
X159334000Y-113099001D01*
G75*
G02*
X159084001Y-113349000I-249999J0D01*
G01*
X158383999Y-113349000D01*
G75*
G02*
X158134000Y-113099001I0J249999D01*
G01*
X158134000Y-112198999D01*
G75*
G02*
X158383999Y-111949000I249999J0D01*
G01*
X159084001Y-111949000D01*
G75*
G02*
X159334000Y-112198999I0J-249999D01*
G01*
G37*
G36*
G01*
X157334000Y-112198999D02*
X157334000Y-113099001D01*
G75*
G02*
X157084001Y-113349000I-249999J0D01*
G01*
X156383999Y-113349000D01*
G75*
G02*
X156134000Y-113099001I0J249999D01*
G01*
X156134000Y-112198999D01*
G75*
G02*
X156383999Y-111949000I249999J0D01*
G01*
X157084001Y-111949000D01*
G75*
G02*
X157334000Y-112198999I0J-249999D01*
G01*
G37*
D18*
X159118000Y-115570000D03*
X154318000Y-115570000D03*
G36*
G01*
X153771000Y-108999000D02*
X153771000Y-109949000D01*
G75*
G02*
X153521000Y-110199000I-250000J0D01*
G01*
X152846000Y-110199000D01*
G75*
G02*
X152596000Y-109949000I0J250000D01*
G01*
X152596000Y-108999000D01*
G75*
G02*
X152846000Y-108749000I250000J0D01*
G01*
X153521000Y-108749000D01*
G75*
G02*
X153771000Y-108999000I0J-250000D01*
G01*
G37*
G36*
G01*
X151696000Y-108999000D02*
X151696000Y-109949000D01*
G75*
G02*
X151446000Y-110199000I-250000J0D01*
G01*
X150771000Y-110199000D01*
G75*
G02*
X150521000Y-109949000I0J250000D01*
G01*
X150521000Y-108999000D01*
G75*
G02*
X150771000Y-108749000I250000J0D01*
G01*
X151446000Y-108749000D01*
G75*
G02*
X151696000Y-108999000I0J-250000D01*
G01*
G37*
G36*
G01*
X151696000Y-111525000D02*
X151696000Y-112475000D01*
G75*
G02*
X151446000Y-112725000I-250000J0D01*
G01*
X150771000Y-112725000D01*
G75*
G02*
X150521000Y-112475000I0J250000D01*
G01*
X150521000Y-111525000D01*
G75*
G02*
X150771000Y-111275000I250000J0D01*
G01*
X151446000Y-111275000D01*
G75*
G02*
X151696000Y-111525000I0J-250000D01*
G01*
G37*
G36*
G01*
X153771000Y-111525000D02*
X153771000Y-112475000D01*
G75*
G02*
X153521000Y-112725000I-250000J0D01*
G01*
X152846000Y-112725000D01*
G75*
G02*
X152596000Y-112475000I0J250000D01*
G01*
X152596000Y-111525000D01*
G75*
G02*
X152846000Y-111275000I250000J0D01*
G01*
X153521000Y-111275000D01*
G75*
G02*
X153771000Y-111525000I0J-250000D01*
G01*
G37*
G36*
G01*
X143972000Y-108105500D02*
X143972000Y-108230500D01*
G75*
G02*
X143909500Y-108293000I-62500J0D01*
G01*
X143184500Y-108293000D01*
G75*
G02*
X143122000Y-108230500I0J62500D01*
G01*
X143122000Y-108105500D01*
G75*
G02*
X143184500Y-108043000I62500J0D01*
G01*
X143909500Y-108043000D01*
G75*
G02*
X143972000Y-108105500I0J-62500D01*
G01*
G37*
G36*
G01*
X143972000Y-107605500D02*
X143972000Y-107730500D01*
G75*
G02*
X143909500Y-107793000I-62500J0D01*
G01*
X143184500Y-107793000D01*
G75*
G02*
X143122000Y-107730500I0J62500D01*
G01*
X143122000Y-107605500D01*
G75*
G02*
X143184500Y-107543000I62500J0D01*
G01*
X143909500Y-107543000D01*
G75*
G02*
X143972000Y-107605500I0J-62500D01*
G01*
G37*
G36*
G01*
X143972000Y-107105500D02*
X143972000Y-107230500D01*
G75*
G02*
X143909500Y-107293000I-62500J0D01*
G01*
X143184500Y-107293000D01*
G75*
G02*
X143122000Y-107230500I0J62500D01*
G01*
X143122000Y-107105500D01*
G75*
G02*
X143184500Y-107043000I62500J0D01*
G01*
X143909500Y-107043000D01*
G75*
G02*
X143972000Y-107105500I0J-62500D01*
G01*
G37*
G36*
G01*
X143972000Y-106605500D02*
X143972000Y-106730500D01*
G75*
G02*
X143909500Y-106793000I-62500J0D01*
G01*
X143184500Y-106793000D01*
G75*
G02*
X143122000Y-106730500I0J62500D01*
G01*
X143122000Y-106605500D01*
G75*
G02*
X143184500Y-106543000I62500J0D01*
G01*
X143909500Y-106543000D01*
G75*
G02*
X143972000Y-106605500I0J-62500D01*
G01*
G37*
G36*
G01*
X143972000Y-106105500D02*
X143972000Y-106230500D01*
G75*
G02*
X143909500Y-106293000I-62500J0D01*
G01*
X143184500Y-106293000D01*
G75*
G02*
X143122000Y-106230500I0J62500D01*
G01*
X143122000Y-106105500D01*
G75*
G02*
X143184500Y-106043000I62500J0D01*
G01*
X143909500Y-106043000D01*
G75*
G02*
X143972000Y-106105500I0J-62500D01*
G01*
G37*
G36*
G01*
X143972000Y-105605500D02*
X143972000Y-105730500D01*
G75*
G02*
X143909500Y-105793000I-62500J0D01*
G01*
X143184500Y-105793000D01*
G75*
G02*
X143122000Y-105730500I0J62500D01*
G01*
X143122000Y-105605500D01*
G75*
G02*
X143184500Y-105543000I62500J0D01*
G01*
X143909500Y-105543000D01*
G75*
G02*
X143972000Y-105605500I0J-62500D01*
G01*
G37*
G36*
G01*
X143972000Y-105105500D02*
X143972000Y-105230500D01*
G75*
G02*
X143909500Y-105293000I-62500J0D01*
G01*
X143184500Y-105293000D01*
G75*
G02*
X143122000Y-105230500I0J62500D01*
G01*
X143122000Y-105105500D01*
G75*
G02*
X143184500Y-105043000I62500J0D01*
G01*
X143909500Y-105043000D01*
G75*
G02*
X143972000Y-105105500I0J-62500D01*
G01*
G37*
G36*
G01*
X143972000Y-104605500D02*
X143972000Y-104730500D01*
G75*
G02*
X143909500Y-104793000I-62500J0D01*
G01*
X143184500Y-104793000D01*
G75*
G02*
X143122000Y-104730500I0J62500D01*
G01*
X143122000Y-104605500D01*
G75*
G02*
X143184500Y-104543000I62500J0D01*
G01*
X143909500Y-104543000D01*
G75*
G02*
X143972000Y-104605500I0J-62500D01*
G01*
G37*
G36*
G01*
X143972000Y-104105500D02*
X143972000Y-104230500D01*
G75*
G02*
X143909500Y-104293000I-62500J0D01*
G01*
X143184500Y-104293000D01*
G75*
G02*
X143122000Y-104230500I0J62500D01*
G01*
X143122000Y-104105500D01*
G75*
G02*
X143184500Y-104043000I62500J0D01*
G01*
X143909500Y-104043000D01*
G75*
G02*
X143972000Y-104105500I0J-62500D01*
G01*
G37*
G36*
G01*
X143972000Y-103605500D02*
X143972000Y-103730500D01*
G75*
G02*
X143909500Y-103793000I-62500J0D01*
G01*
X143184500Y-103793000D01*
G75*
G02*
X143122000Y-103730500I0J62500D01*
G01*
X143122000Y-103605500D01*
G75*
G02*
X143184500Y-103543000I62500J0D01*
G01*
X143909500Y-103543000D01*
G75*
G02*
X143972000Y-103605500I0J-62500D01*
G01*
G37*
G36*
G01*
X142972000Y-102605500D02*
X142972000Y-103330500D01*
G75*
G02*
X142909500Y-103393000I-62500J0D01*
G01*
X142784500Y-103393000D01*
G75*
G02*
X142722000Y-103330500I0J62500D01*
G01*
X142722000Y-102605500D01*
G75*
G02*
X142784500Y-102543000I62500J0D01*
G01*
X142909500Y-102543000D01*
G75*
G02*
X142972000Y-102605500I0J-62500D01*
G01*
G37*
G36*
G01*
X142472000Y-102605500D02*
X142472000Y-103330500D01*
G75*
G02*
X142409500Y-103393000I-62500J0D01*
G01*
X142284500Y-103393000D01*
G75*
G02*
X142222000Y-103330500I0J62500D01*
G01*
X142222000Y-102605500D01*
G75*
G02*
X142284500Y-102543000I62500J0D01*
G01*
X142409500Y-102543000D01*
G75*
G02*
X142472000Y-102605500I0J-62500D01*
G01*
G37*
G36*
G01*
X141972000Y-102605500D02*
X141972000Y-103330500D01*
G75*
G02*
X141909500Y-103393000I-62500J0D01*
G01*
X141784500Y-103393000D01*
G75*
G02*
X141722000Y-103330500I0J62500D01*
G01*
X141722000Y-102605500D01*
G75*
G02*
X141784500Y-102543000I62500J0D01*
G01*
X141909500Y-102543000D01*
G75*
G02*
X141972000Y-102605500I0J-62500D01*
G01*
G37*
G36*
G01*
X141472000Y-102605500D02*
X141472000Y-103330500D01*
G75*
G02*
X141409500Y-103393000I-62500J0D01*
G01*
X141284500Y-103393000D01*
G75*
G02*
X141222000Y-103330500I0J62500D01*
G01*
X141222000Y-102605500D01*
G75*
G02*
X141284500Y-102543000I62500J0D01*
G01*
X141409500Y-102543000D01*
G75*
G02*
X141472000Y-102605500I0J-62500D01*
G01*
G37*
G36*
G01*
X140972000Y-102605500D02*
X140972000Y-103330500D01*
G75*
G02*
X140909500Y-103393000I-62500J0D01*
G01*
X140784500Y-103393000D01*
G75*
G02*
X140722000Y-103330500I0J62500D01*
G01*
X140722000Y-102605500D01*
G75*
G02*
X140784500Y-102543000I62500J0D01*
G01*
X140909500Y-102543000D01*
G75*
G02*
X140972000Y-102605500I0J-62500D01*
G01*
G37*
G36*
G01*
X140472000Y-102605500D02*
X140472000Y-103330500D01*
G75*
G02*
X140409500Y-103393000I-62500J0D01*
G01*
X140284500Y-103393000D01*
G75*
G02*
X140222000Y-103330500I0J62500D01*
G01*
X140222000Y-102605500D01*
G75*
G02*
X140284500Y-102543000I62500J0D01*
G01*
X140409500Y-102543000D01*
G75*
G02*
X140472000Y-102605500I0J-62500D01*
G01*
G37*
G36*
G01*
X139972000Y-102605500D02*
X139972000Y-103330500D01*
G75*
G02*
X139909500Y-103393000I-62500J0D01*
G01*
X139784500Y-103393000D01*
G75*
G02*
X139722000Y-103330500I0J62500D01*
G01*
X139722000Y-102605500D01*
G75*
G02*
X139784500Y-102543000I62500J0D01*
G01*
X139909500Y-102543000D01*
G75*
G02*
X139972000Y-102605500I0J-62500D01*
G01*
G37*
G36*
G01*
X139472000Y-102605500D02*
X139472000Y-103330500D01*
G75*
G02*
X139409500Y-103393000I-62500J0D01*
G01*
X139284500Y-103393000D01*
G75*
G02*
X139222000Y-103330500I0J62500D01*
G01*
X139222000Y-102605500D01*
G75*
G02*
X139284500Y-102543000I62500J0D01*
G01*
X139409500Y-102543000D01*
G75*
G02*
X139472000Y-102605500I0J-62500D01*
G01*
G37*
G36*
G01*
X139072000Y-103605500D02*
X139072000Y-103730500D01*
G75*
G02*
X139009500Y-103793000I-62500J0D01*
G01*
X138284500Y-103793000D01*
G75*
G02*
X138222000Y-103730500I0J62500D01*
G01*
X138222000Y-103605500D01*
G75*
G02*
X138284500Y-103543000I62500J0D01*
G01*
X139009500Y-103543000D01*
G75*
G02*
X139072000Y-103605500I0J-62500D01*
G01*
G37*
G36*
G01*
X139072000Y-104105500D02*
X139072000Y-104230500D01*
G75*
G02*
X139009500Y-104293000I-62500J0D01*
G01*
X138284500Y-104293000D01*
G75*
G02*
X138222000Y-104230500I0J62500D01*
G01*
X138222000Y-104105500D01*
G75*
G02*
X138284500Y-104043000I62500J0D01*
G01*
X139009500Y-104043000D01*
G75*
G02*
X139072000Y-104105500I0J-62500D01*
G01*
G37*
G36*
G01*
X139072000Y-104605500D02*
X139072000Y-104730500D01*
G75*
G02*
X139009500Y-104793000I-62500J0D01*
G01*
X138284500Y-104793000D01*
G75*
G02*
X138222000Y-104730500I0J62500D01*
G01*
X138222000Y-104605500D01*
G75*
G02*
X138284500Y-104543000I62500J0D01*
G01*
X139009500Y-104543000D01*
G75*
G02*
X139072000Y-104605500I0J-62500D01*
G01*
G37*
G36*
G01*
X139072000Y-105105500D02*
X139072000Y-105230500D01*
G75*
G02*
X139009500Y-105293000I-62500J0D01*
G01*
X138284500Y-105293000D01*
G75*
G02*
X138222000Y-105230500I0J62500D01*
G01*
X138222000Y-105105500D01*
G75*
G02*
X138284500Y-105043000I62500J0D01*
G01*
X139009500Y-105043000D01*
G75*
G02*
X139072000Y-105105500I0J-62500D01*
G01*
G37*
G36*
G01*
X139072000Y-105605500D02*
X139072000Y-105730500D01*
G75*
G02*
X139009500Y-105793000I-62500J0D01*
G01*
X138284500Y-105793000D01*
G75*
G02*
X138222000Y-105730500I0J62500D01*
G01*
X138222000Y-105605500D01*
G75*
G02*
X138284500Y-105543000I62500J0D01*
G01*
X139009500Y-105543000D01*
G75*
G02*
X139072000Y-105605500I0J-62500D01*
G01*
G37*
G36*
G01*
X139072000Y-106105500D02*
X139072000Y-106230500D01*
G75*
G02*
X139009500Y-106293000I-62500J0D01*
G01*
X138284500Y-106293000D01*
G75*
G02*
X138222000Y-106230500I0J62500D01*
G01*
X138222000Y-106105500D01*
G75*
G02*
X138284500Y-106043000I62500J0D01*
G01*
X139009500Y-106043000D01*
G75*
G02*
X139072000Y-106105500I0J-62500D01*
G01*
G37*
G36*
G01*
X139072000Y-106605500D02*
X139072000Y-106730500D01*
G75*
G02*
X139009500Y-106793000I-62500J0D01*
G01*
X138284500Y-106793000D01*
G75*
G02*
X138222000Y-106730500I0J62500D01*
G01*
X138222000Y-106605500D01*
G75*
G02*
X138284500Y-106543000I62500J0D01*
G01*
X139009500Y-106543000D01*
G75*
G02*
X139072000Y-106605500I0J-62500D01*
G01*
G37*
G36*
G01*
X139072000Y-107105500D02*
X139072000Y-107230500D01*
G75*
G02*
X139009500Y-107293000I-62500J0D01*
G01*
X138284500Y-107293000D01*
G75*
G02*
X138222000Y-107230500I0J62500D01*
G01*
X138222000Y-107105500D01*
G75*
G02*
X138284500Y-107043000I62500J0D01*
G01*
X139009500Y-107043000D01*
G75*
G02*
X139072000Y-107105500I0J-62500D01*
G01*
G37*
G36*
G01*
X139072000Y-107605500D02*
X139072000Y-107730500D01*
G75*
G02*
X139009500Y-107793000I-62500J0D01*
G01*
X138284500Y-107793000D01*
G75*
G02*
X138222000Y-107730500I0J62500D01*
G01*
X138222000Y-107605500D01*
G75*
G02*
X138284500Y-107543000I62500J0D01*
G01*
X139009500Y-107543000D01*
G75*
G02*
X139072000Y-107605500I0J-62500D01*
G01*
G37*
G36*
G01*
X139072000Y-108105500D02*
X139072000Y-108230500D01*
G75*
G02*
X139009500Y-108293000I-62500J0D01*
G01*
X138284500Y-108293000D01*
G75*
G02*
X138222000Y-108230500I0J62500D01*
G01*
X138222000Y-108105500D01*
G75*
G02*
X138284500Y-108043000I62500J0D01*
G01*
X139009500Y-108043000D01*
G75*
G02*
X139072000Y-108105500I0J-62500D01*
G01*
G37*
G36*
G01*
X139472000Y-108505500D02*
X139472000Y-109230500D01*
G75*
G02*
X139409500Y-109293000I-62500J0D01*
G01*
X139284500Y-109293000D01*
G75*
G02*
X139222000Y-109230500I0J62500D01*
G01*
X139222000Y-108505500D01*
G75*
G02*
X139284500Y-108443000I62500J0D01*
G01*
X139409500Y-108443000D01*
G75*
G02*
X139472000Y-108505500I0J-62500D01*
G01*
G37*
G36*
G01*
X139972000Y-108505500D02*
X139972000Y-109230500D01*
G75*
G02*
X139909500Y-109293000I-62500J0D01*
G01*
X139784500Y-109293000D01*
G75*
G02*
X139722000Y-109230500I0J62500D01*
G01*
X139722000Y-108505500D01*
G75*
G02*
X139784500Y-108443000I62500J0D01*
G01*
X139909500Y-108443000D01*
G75*
G02*
X139972000Y-108505500I0J-62500D01*
G01*
G37*
G36*
G01*
X140472000Y-108505500D02*
X140472000Y-109230500D01*
G75*
G02*
X140409500Y-109293000I-62500J0D01*
G01*
X140284500Y-109293000D01*
G75*
G02*
X140222000Y-109230500I0J62500D01*
G01*
X140222000Y-108505500D01*
G75*
G02*
X140284500Y-108443000I62500J0D01*
G01*
X140409500Y-108443000D01*
G75*
G02*
X140472000Y-108505500I0J-62500D01*
G01*
G37*
G36*
G01*
X140972000Y-108505500D02*
X140972000Y-109230500D01*
G75*
G02*
X140909500Y-109293000I-62500J0D01*
G01*
X140784500Y-109293000D01*
G75*
G02*
X140722000Y-109230500I0J62500D01*
G01*
X140722000Y-108505500D01*
G75*
G02*
X140784500Y-108443000I62500J0D01*
G01*
X140909500Y-108443000D01*
G75*
G02*
X140972000Y-108505500I0J-62500D01*
G01*
G37*
G36*
G01*
X141472000Y-108505500D02*
X141472000Y-109230500D01*
G75*
G02*
X141409500Y-109293000I-62500J0D01*
G01*
X141284500Y-109293000D01*
G75*
G02*
X141222000Y-109230500I0J62500D01*
G01*
X141222000Y-108505500D01*
G75*
G02*
X141284500Y-108443000I62500J0D01*
G01*
X141409500Y-108443000D01*
G75*
G02*
X141472000Y-108505500I0J-62500D01*
G01*
G37*
G36*
G01*
X141972000Y-108505500D02*
X141972000Y-109230500D01*
G75*
G02*
X141909500Y-109293000I-62500J0D01*
G01*
X141784500Y-109293000D01*
G75*
G02*
X141722000Y-109230500I0J62500D01*
G01*
X141722000Y-108505500D01*
G75*
G02*
X141784500Y-108443000I62500J0D01*
G01*
X141909500Y-108443000D01*
G75*
G02*
X141972000Y-108505500I0J-62500D01*
G01*
G37*
G36*
G01*
X142472000Y-108505500D02*
X142472000Y-109230500D01*
G75*
G02*
X142409500Y-109293000I-62500J0D01*
G01*
X142284500Y-109293000D01*
G75*
G02*
X142222000Y-109230500I0J62500D01*
G01*
X142222000Y-108505500D01*
G75*
G02*
X142284500Y-108443000I62500J0D01*
G01*
X142409500Y-108443000D01*
G75*
G02*
X142472000Y-108505500I0J-62500D01*
G01*
G37*
G36*
G01*
X142972000Y-108505500D02*
X142972000Y-109230500D01*
G75*
G02*
X142909500Y-109293000I-62500J0D01*
G01*
X142784500Y-109293000D01*
G75*
G02*
X142722000Y-109230500I0J62500D01*
G01*
X142722000Y-108505500D01*
G75*
G02*
X142784500Y-108443000I62500J0D01*
G01*
X142909500Y-108443000D01*
G75*
G02*
X142972000Y-108505500I0J-62500D01*
G01*
G37*
D19*
X141097000Y-105918000D03*
D20*
X154584000Y-82931000D03*
X148184000Y-80391000D03*
X154584000Y-77851000D03*
D21*
X164401500Y-85598000D03*
D22*
X164401500Y-88138000D03*
X164401500Y-90678000D03*
X164401500Y-93218000D03*
X164401500Y-95758000D03*
X164401500Y-98298000D03*
X164401500Y-100838000D03*
X164401500Y-103378000D03*
X164401500Y-105918000D03*
X164401500Y-108458000D03*
G36*
G01*
X141281999Y-76733600D02*
X142182001Y-76733600D01*
G75*
G02*
X142432000Y-76983599I0J-249999D01*
G01*
X142432000Y-77633601D01*
G75*
G02*
X142182001Y-77883600I-249999J0D01*
G01*
X141281999Y-77883600D01*
G75*
G02*
X141032000Y-77633601I0J249999D01*
G01*
X141032000Y-76983599D01*
G75*
G02*
X141281999Y-76733600I249999J0D01*
G01*
G37*
G36*
G01*
X141281999Y-78783600D02*
X142182001Y-78783600D01*
G75*
G02*
X142432000Y-79033599I0J-249999D01*
G01*
X142432000Y-79683601D01*
G75*
G02*
X142182001Y-79933600I-249999J0D01*
G01*
X141281999Y-79933600D01*
G75*
G02*
X141032000Y-79683601I0J249999D01*
G01*
X141032000Y-79033599D01*
G75*
G02*
X141281999Y-78783600I249999J0D01*
G01*
G37*
G36*
G01*
X138880001Y-84099200D02*
X137979999Y-84099200D01*
G75*
G02*
X137730000Y-83849201I0J249999D01*
G01*
X137730000Y-83149199D01*
G75*
G02*
X137979999Y-82899200I249999J0D01*
G01*
X138880001Y-82899200D01*
G75*
G02*
X139130000Y-83149199I0J-249999D01*
G01*
X139130000Y-83849201D01*
G75*
G02*
X138880001Y-84099200I-249999J0D01*
G01*
G37*
G36*
G01*
X138880001Y-82099200D02*
X137979999Y-82099200D01*
G75*
G02*
X137730000Y-81849201I0J249999D01*
G01*
X137730000Y-81149199D01*
G75*
G02*
X137979999Y-80899200I249999J0D01*
G01*
X138880001Y-80899200D01*
G75*
G02*
X139130000Y-81149199I0J-249999D01*
G01*
X139130000Y-81849201D01*
G75*
G02*
X138880001Y-82099200I-249999J0D01*
G01*
G37*
G36*
G01*
X135578001Y-82099200D02*
X134677999Y-82099200D01*
G75*
G02*
X134428000Y-81849201I0J249999D01*
G01*
X134428000Y-81149199D01*
G75*
G02*
X134677999Y-80899200I249999J0D01*
G01*
X135578001Y-80899200D01*
G75*
G02*
X135828000Y-81149199I0J-249999D01*
G01*
X135828000Y-81849201D01*
G75*
G02*
X135578001Y-82099200I-249999J0D01*
G01*
G37*
G36*
G01*
X135578001Y-84099200D02*
X134677999Y-84099200D01*
G75*
G02*
X134428000Y-83849201I0J249999D01*
G01*
X134428000Y-83149199D01*
G75*
G02*
X134677999Y-82899200I249999J0D01*
G01*
X135578001Y-82899200D01*
G75*
G02*
X135828000Y-83149199I0J-249999D01*
G01*
X135828000Y-83849201D01*
G75*
G02*
X135578001Y-84099200I-249999J0D01*
G01*
G37*
G36*
G01*
X142182001Y-84099200D02*
X141281999Y-84099200D01*
G75*
G02*
X141032000Y-83849201I0J249999D01*
G01*
X141032000Y-83149199D01*
G75*
G02*
X141281999Y-82899200I249999J0D01*
G01*
X142182001Y-82899200D01*
G75*
G02*
X142432000Y-83149199I0J-249999D01*
G01*
X142432000Y-83849201D01*
G75*
G02*
X142182001Y-84099200I-249999J0D01*
G01*
G37*
G36*
G01*
X142182001Y-82099200D02*
X141281999Y-82099200D01*
G75*
G02*
X141032000Y-81849201I0J249999D01*
G01*
X141032000Y-81149199D01*
G75*
G02*
X141281999Y-80899200I249999J0D01*
G01*
X142182001Y-80899200D01*
G75*
G02*
X142432000Y-81149199I0J-249999D01*
G01*
X142432000Y-81849201D01*
G75*
G02*
X142182001Y-82099200I-249999J0D01*
G01*
G37*
G36*
G01*
X145433201Y-84226200D02*
X144533199Y-84226200D01*
G75*
G02*
X144283200Y-83976201I0J249999D01*
G01*
X144283200Y-83276199D01*
G75*
G02*
X144533199Y-83026200I249999J0D01*
G01*
X145433201Y-83026200D01*
G75*
G02*
X145683200Y-83276199I0J-249999D01*
G01*
X145683200Y-83976201D01*
G75*
G02*
X145433201Y-84226200I-249999J0D01*
G01*
G37*
G36*
G01*
X145433201Y-82226200D02*
X144533199Y-82226200D01*
G75*
G02*
X144283200Y-81976201I0J249999D01*
G01*
X144283200Y-81276199D01*
G75*
G02*
X144533199Y-81026200I249999J0D01*
G01*
X145433201Y-81026200D01*
G75*
G02*
X145683200Y-81276199I0J-249999D01*
G01*
X145683200Y-81976201D01*
G75*
G02*
X145433201Y-82226200I-249999J0D01*
G01*
G37*
G36*
G01*
X145534801Y-77908200D02*
X144634799Y-77908200D01*
G75*
G02*
X144384800Y-77658201I0J249999D01*
G01*
X144384800Y-76958199D01*
G75*
G02*
X144634799Y-76708200I249999J0D01*
G01*
X145534801Y-76708200D01*
G75*
G02*
X145784800Y-76958199I0J-249999D01*
G01*
X145784800Y-77658201D01*
G75*
G02*
X145534801Y-77908200I-249999J0D01*
G01*
G37*
G36*
G01*
X145534801Y-79908200D02*
X144634799Y-79908200D01*
G75*
G02*
X144384800Y-79658201I0J249999D01*
G01*
X144384800Y-78958199D01*
G75*
G02*
X144634799Y-78708200I249999J0D01*
G01*
X145534801Y-78708200D01*
G75*
G02*
X145784800Y-78958199I0J-249999D01*
G01*
X145784800Y-79658201D01*
G75*
G02*
X145534801Y-79908200I-249999J0D01*
G01*
G37*
D12*
G36*
X129824000Y-102501602D02*
G01*
X129848534Y-102501602D01*
X129897365Y-102506412D01*
X129945490Y-102515984D01*
X129992445Y-102530228D01*
X130037778Y-102549005D01*
X130081051Y-102572136D01*
X130121850Y-102599396D01*
X130159779Y-102630524D01*
X130194476Y-102665221D01*
X130225604Y-102703150D01*
X130252864Y-102743949D01*
X130275995Y-102787222D01*
X130294772Y-102832555D01*
X130309016Y-102879510D01*
X130318588Y-102927635D01*
X130323398Y-102976466D01*
X130323398Y-103001000D01*
X130324000Y-103001000D01*
X130324000Y-103501000D01*
X130323398Y-103501000D01*
X130323398Y-103525534D01*
X130318588Y-103574365D01*
X130309016Y-103622490D01*
X130294772Y-103669445D01*
X130275995Y-103714778D01*
X130252864Y-103758051D01*
X130225604Y-103798850D01*
X130194476Y-103836779D01*
X130159779Y-103871476D01*
X130121850Y-103902604D01*
X130081051Y-103929864D01*
X130037778Y-103952995D01*
X129992445Y-103971772D01*
X129945490Y-103986016D01*
X129897365Y-103995588D01*
X129848534Y-104000398D01*
X129824000Y-104000398D01*
X129824000Y-104001000D01*
X129274000Y-104001000D01*
X129274000Y-102501000D01*
X129824000Y-102501000D01*
X129824000Y-102501602D01*
G37*
D23*
X128524000Y-103251000D03*
D12*
G36*
X127774000Y-104001000D02*
G01*
X127224000Y-104001000D01*
X127224000Y-104000398D01*
X127199466Y-104000398D01*
X127150635Y-103995588D01*
X127102510Y-103986016D01*
X127055555Y-103971772D01*
X127010222Y-103952995D01*
X126966949Y-103929864D01*
X126926150Y-103902604D01*
X126888221Y-103871476D01*
X126853524Y-103836779D01*
X126822396Y-103798850D01*
X126795136Y-103758051D01*
X126772005Y-103714778D01*
X126753228Y-103669445D01*
X126738984Y-103622490D01*
X126729412Y-103574365D01*
X126724602Y-103525534D01*
X126724602Y-103501000D01*
X126724000Y-103501000D01*
X126724000Y-103001000D01*
X126724602Y-103001000D01*
X126724602Y-102976466D01*
X126729412Y-102927635D01*
X126738984Y-102879510D01*
X126753228Y-102832555D01*
X126772005Y-102787222D01*
X126795136Y-102743949D01*
X126822396Y-102703150D01*
X126853524Y-102665221D01*
X126888221Y-102630524D01*
X126926150Y-102599396D01*
X126966949Y-102572136D01*
X127010222Y-102549005D01*
X127055555Y-102530228D01*
X127102510Y-102515984D01*
X127150635Y-102506412D01*
X127199466Y-102501602D01*
X127224000Y-102501602D01*
X127224000Y-102501000D01*
X127774000Y-102501000D01*
X127774000Y-104001000D01*
G37*
G36*
X128893000Y-108446000D02*
G01*
X128893000Y-108996000D01*
X128892398Y-108996000D01*
X128892398Y-109020534D01*
X128887588Y-109069365D01*
X128878016Y-109117490D01*
X128863772Y-109164445D01*
X128844995Y-109209778D01*
X128821864Y-109253051D01*
X128794604Y-109293850D01*
X128763476Y-109331779D01*
X128728779Y-109366476D01*
X128690850Y-109397604D01*
X128650051Y-109424864D01*
X128606778Y-109447995D01*
X128561445Y-109466772D01*
X128514490Y-109481016D01*
X128466365Y-109490588D01*
X128417534Y-109495398D01*
X128393000Y-109495398D01*
X128393000Y-109496000D01*
X127893000Y-109496000D01*
X127893000Y-109495398D01*
X127868466Y-109495398D01*
X127819635Y-109490588D01*
X127771510Y-109481016D01*
X127724555Y-109466772D01*
X127679222Y-109447995D01*
X127635949Y-109424864D01*
X127595150Y-109397604D01*
X127557221Y-109366476D01*
X127522524Y-109331779D01*
X127491396Y-109293850D01*
X127464136Y-109253051D01*
X127441005Y-109209778D01*
X127422228Y-109164445D01*
X127407984Y-109117490D01*
X127398412Y-109069365D01*
X127393602Y-109020534D01*
X127393602Y-108996000D01*
X127393000Y-108996000D01*
X127393000Y-108446000D01*
X128893000Y-108446000D01*
G37*
D24*
X128143000Y-107696000D03*
D12*
G36*
X127393602Y-106396000D02*
G01*
X127393602Y-106371466D01*
X127398412Y-106322635D01*
X127407984Y-106274510D01*
X127422228Y-106227555D01*
X127441005Y-106182222D01*
X127464136Y-106138949D01*
X127491396Y-106098150D01*
X127522524Y-106060221D01*
X127557221Y-106025524D01*
X127595150Y-105994396D01*
X127635949Y-105967136D01*
X127679222Y-105944005D01*
X127724555Y-105925228D01*
X127771510Y-105910984D01*
X127819635Y-105901412D01*
X127868466Y-105896602D01*
X127893000Y-105896602D01*
X127893000Y-105896000D01*
X128393000Y-105896000D01*
X128393000Y-105896602D01*
X128417534Y-105896602D01*
X128466365Y-105901412D01*
X128514490Y-105910984D01*
X128561445Y-105925228D01*
X128606778Y-105944005D01*
X128650051Y-105967136D01*
X128690850Y-105994396D01*
X128728779Y-106025524D01*
X128763476Y-106060221D01*
X128794604Y-106098150D01*
X128821864Y-106138949D01*
X128844995Y-106182222D01*
X128863772Y-106227555D01*
X128878016Y-106274510D01*
X128887588Y-106322635D01*
X128892398Y-106371466D01*
X128892398Y-106396000D01*
X128893000Y-106396000D01*
X128893000Y-106946000D01*
X127393000Y-106946000D01*
X127393000Y-106396000D01*
X127393602Y-106396000D01*
G37*
G36*
G01*
X134677999Y-76759000D02*
X135578001Y-76759000D01*
G75*
G02*
X135828000Y-77008999I0J-249999D01*
G01*
X135828000Y-77659001D01*
G75*
G02*
X135578001Y-77909000I-249999J0D01*
G01*
X134677999Y-77909000D01*
G75*
G02*
X134428000Y-77659001I0J249999D01*
G01*
X134428000Y-77008999D01*
G75*
G02*
X134677999Y-76759000I249999J0D01*
G01*
G37*
G36*
G01*
X134677999Y-78809000D02*
X135578001Y-78809000D01*
G75*
G02*
X135828000Y-79058999I0J-249999D01*
G01*
X135828000Y-79709001D01*
G75*
G02*
X135578001Y-79959000I-249999J0D01*
G01*
X134677999Y-79959000D01*
G75*
G02*
X134428000Y-79709001I0J249999D01*
G01*
X134428000Y-79058999D01*
G75*
G02*
X134677999Y-78809000I249999J0D01*
G01*
G37*
G36*
G01*
X137979999Y-76759000D02*
X138880001Y-76759000D01*
G75*
G02*
X139130000Y-77008999I0J-249999D01*
G01*
X139130000Y-77659001D01*
G75*
G02*
X138880001Y-77909000I-249999J0D01*
G01*
X137979999Y-77909000D01*
G75*
G02*
X137730000Y-77659001I0J249999D01*
G01*
X137730000Y-77008999D01*
G75*
G02*
X137979999Y-76759000I249999J0D01*
G01*
G37*
G36*
G01*
X137979999Y-78809000D02*
X138880001Y-78809000D01*
G75*
G02*
X139130000Y-79058999I0J-249999D01*
G01*
X139130000Y-79709001D01*
G75*
G02*
X138880001Y-79959000I-249999J0D01*
G01*
X137979999Y-79959000D01*
G75*
G02*
X137730000Y-79709001I0J249999D01*
G01*
X137730000Y-79058999D01*
G75*
G02*
X137979999Y-78809000I249999J0D01*
G01*
G37*
G36*
G01*
X158819001Y-83515000D02*
X157918999Y-83515000D01*
G75*
G02*
X157669000Y-83265001I0J249999D01*
G01*
X157669000Y-82564999D01*
G75*
G02*
X157918999Y-82315000I249999J0D01*
G01*
X158819001Y-82315000D01*
G75*
G02*
X159069000Y-82564999I0J-249999D01*
G01*
X159069000Y-83265001D01*
G75*
G02*
X158819001Y-83515000I-249999J0D01*
G01*
G37*
G36*
G01*
X158819001Y-81515000D02*
X157918999Y-81515000D01*
G75*
G02*
X157669000Y-81265001I0J249999D01*
G01*
X157669000Y-80564999D01*
G75*
G02*
X157918999Y-80315000I249999J0D01*
G01*
X158819001Y-80315000D01*
G75*
G02*
X159069000Y-80564999I0J-249999D01*
G01*
X159069000Y-81265001D01*
G75*
G02*
X158819001Y-81515000I-249999J0D01*
G01*
G37*
M02*
